<?xml version="1.0" encoding="UTF-8"?><svg version="1.1" width="896px" height="1024px" viewBox="0 0 896.0 1024.0" xmlns="http://www.w3.org/2000/svg" xmlns:xlink="http://www.w3.org/1999/xlink"><defs><clipPath id="i0"><path d="M896,0 L896,1024 L0,1024 L0,0 L896,0 Z"></path></clipPath><clipPath id="i1"><path d="M430.605,0 L576,160 L430.605,320 L384,276.574 L460.854,192 L179.538,192 C147.415,192.821 117.345,206.54 94.84,230.692 C72.297,254.884 59.882,286.916 59.882,320.888 L59.882,321.548 C59.882,355.481 72.245,387.28 94.695,411.088 C117.168,434.922 147.148,448 179.11,448 L717.06,448 C815.347,448 895.619,534.063 895.999359,639.789 C896.182,691.034 877.68,739.261 843.9,775.586 C810.069,811.964 765.02,832 717.061,832 L0,832 L0,768 L717.024,768 C717.033,768 717.043,768.023 717.053,768.023 C749.033,768.023 779.056,754.672 801.602,730.428 C824.092,706.244 836.41,674.142 836.288,640.035 C836.035,569.45 782.549,512 717.06,512 L179.11,512 C131.314,512 86.417,492.327 52.69,456.559 C18.822,420.642 0.171,372.694 0.171,321.548 L0.171,320.888 C0.171,269.847 18.785,221.761 52.584,185.489 C86.102,149.518 130.841,129.105 178.562,128 L460.854,128 L384,43.426 L430.605,0 Z M756,16 C833.196,16 896,78.804 896,156 C896,233.196 833.196,296 756,296 C678.804,296 616,233.196 616,156 C616,78.804 678.804,16 756,16 Z M756,80.013 C714.086,80.013 679.987,114.101 679.987,156 C679.987,197.9 714.086,231.987 756,231.987 C797.914,231.987 832.013,197.9 832.013,156 C832.013,114.101 797.914,80.013 756,80.013 Z"></path></clipPath></defs><g clip-path="url(#i0)"><g transform="translate(0.0 63.0)"><g clip-path="url(#i1)"><polygon points="0,0 896,0 896,832 0,832 0,0" stroke="none" fill="#000000"></polygon></g></g></g></svg>