<?xml version="1.0" encoding="UTF-8"?><svg version="1.1" width="896px" height="1024px" viewBox="0 0 896.0 1024.0" xmlns="http://www.w3.org/2000/svg" xmlns:xlink="http://www.w3.org/1999/xlink"><defs><clipPath id="i0"><path d="M896,0 L896,1024 L0,1024 L0,0 L896,0 Z"></path></clipPath><clipPath id="i1"><path d="M750.6252,0 L896.0002,160 L750.6252,320 L704.0002,276.594 L780.807,192.06 L179.0074,191.909 L178.9774,191.909 C147.0174,191.909 117.0004,205.239 94.4554,229.446 C71.9454,253.615 59.6154,285.704 59.7374,319.802 C59.9914,390.334 113.4824,448 178.9784,448 L717.0204,448 C764.8314,448 809.7404,467.399 843.4754,503.14 C877.3464,539.026 896.0004,586.93 896.0004,638.029 L896.0004,638.689 C896.0004,689.688 877.3844,737.818 843.5834,774.211 C809.9954,810.375 765.2134,830.895 717.4864,831.992 L717.1364,832 L276.310151,832.001486 C261.798404,893.828303 206.189494,940 140,940 C62.804,940 0,877.196 0,800 C0,722.804 62.804,660 140,660 C206.189852,660 261.799004,706.172196 276.310386,767.999515 L716.5394,768 C748.5984,767.173 778.6564,753.448 801.2074,729.166 C823.8134,704.826 836.2624,672.694 836.2624,638.689 L836.2624,638.029 C836.2624,604.119 823.8964,572.341 801.4404,548.55 C778.9654,524.739 748.9844,512 717.0204,512 L178.9784,512 C80.6694,512 0.0014,426 0.0014,320.047 C0.0014,269 18.3334,220.634 52.1394,184.337 C85.9744,148.008 131.0224,128 178.9774,128 L179.0224,128 L781.009,128.162 L704.0002,43.406 L750.6252,0 Z M140,724 C98.093,724 64,758.094 64,800 C64,841.906 98.093,876 140,876 C181.907,876 216,841.906 216,800 C216,758.094 181.907,724 140,724 Z"></path></clipPath></defs><g clip-path="url(#i0)"><g transform="translate(0.0 63.0)"><g clip-path="url(#i1)"><polygon points="0,0 896,0 896,940 0,940 0,0" stroke="none" fill="#000000"></polygon></g></g></g></svg>