<?xml version="1.0" encoding="utf-8"?>
<!-- Generated by IcoMoon.io -->
<!DOCTYPE svg PUBLIC "-//W3C//DTD SVG 1.1//EN" "http://www.w3.org/Graphics/SVG/1.1/DTD/svg11.dtd">
<svg version="1.1" xmlns="http://www.w3.org/2000/svg" xmlns:xlink="http://www.w3.org/1999/xlink" width="15" height="14" viewBox="0 0 15 14">
<path d="M13.953 2v-1.25c0-0.412-0.338-0.75-0.747-0.75h-11.459c-0.409 0-0.747 0.338-0.747 0.75v9.481c0 0.412 0.338 0.75 0.747 0.75h0.253l0.012 0.016v3h10.991v-3l0.009-0.016h0.194c0.412 0 0.747-0.338 0.747-0.75v-0.878l0.016-0.028v-7.325h-0.016zM4.006 13h-0.997v-2h0.997v2zM5.997 13h-0.997v-2h0.997v2zM7.991 13h-0.997v-2h0.997v2zM9.984 13h-0.997v-2h0.997v2zM10.95 3.969v0h-1v1h0.997v1h-0.997v1h0.997v1h-0.997v1h-0.997v-1h-0.997v1h-0.997v-1h-0.997v1h-0.994v-1h-0.997v-1h0.997v-1h-0.997v-1h0.997v-1h-0.997v-1h0.997v-1h0.997v1h0.997v-1h0.997v1h0.997v-1h0.997v1h0.997v1zM11.975 13h-0.997v-2h0.997v2z"></path>
</svg>
