<?xml version="1.0" encoding="utf-8"?>
<!-- Generated by IcoMoon.io -->
<!DOCTYPE svg PUBLIC "-//W3C//DTD SVG 1.1//EN" "http://www.w3.org/Graphics/SVG/1.1/DTD/svg11.dtd">
<svg version="1.1" xmlns="http://www.w3.org/2000/svg" xmlns:xlink="http://www.w3.org/1999/xlink" width="14" height="14" viewBox="0 0 14 14">
<path d="M15.072 4.512l-2.056-2.009v1.497h-2.006v1h2.006v1.5zM4.072 10.512l-2.056-2.009v1.497h-2.006v1h2.006v1.5zM13.966 6.984l-5.975 0.016v-2.009h0.503l1.025-0.991h-1.528v-1.884c0.012 0 0.028 0.003 0.041 0.003 0.338 0.25 0.644 0.541 0.919 0.866 0.241 0.284 0.456 0.6 0.647 0.937l0.85-0.822c-0.041-0.069-0.081-0.137-0.125-0.206 0.069 0.041 0.137 0.084 0.203 0.131l0.744-0.719 0.044-0.066c-0.178-0.128-0.366-0.25-0.559-0.366-0.994-0.581-2.081-0.872-3.259-0.872s-2.266 0.291-3.259 0.872c-0.994 0.581-1.781 1.369-2.362 2.362-0.581 1-0.872 2.088-0.872 3.266 0 0.169 0.006 0.334 0.019 0.497l5.981-0.009v2.009h-0.487l-1.025 0.991h1.513v1.9c-0.016 0-0.034-0.003-0.050-0.003-0.325-0.247-0.622-0.528-0.891-0.847-0.247-0.291-0.466-0.612-0.662-0.962l-0.85 0.822c0.044 0.075 0.087 0.147 0.131 0.219-0.072-0.044-0.144-0.091-0.216-0.137l-0.8 0.772c0.181 0.131 0.372 0.256 0.572 0.372 0.994 0.581 2.081 0.872 3.259 0.872s2.266-0.291 3.259-0.872c0.994-0.581 1.781-1.369 2.362-2.363s0.872-2.081 0.872-3.259c-0.003-0.175-0.009-0.347-0.022-0.519zM3.403 7h-1.297c0.050-0.553 0.187-1.084 0.406-1.597 0.062-0.141 0.128-0.278 0.197-0.412h1.028c-0.187 0.641-0.297 1.313-0.334 2.009zM4.097 4h-0.725c0.094-0.113 0.194-0.219 0.297-0.322 0.303-0.303 0.641-0.566 1.016-0.791-0.15 0.241-0.291 0.491-0.422 0.753-0.059 0.119-0.116 0.237-0.166 0.359zM7 7h-2.509c0.044-0.688 0.184-1.35 0.416-1.984 0.003-0.009 0.006-0.016 0.009-0.025h2.084v2.009zM7 4h-1.641c0.203-0.375 0.438-0.719 0.7-1.031 0.269-0.319 0.569-0.603 0.897-0.85 0.016 0 0.028-0.003 0.044-0.003v1.884zM8.95 12.056c-0.259 0.309-0.547 0.584-0.863 0.825-0.031 0.003-0.066 0.006-0.097 0.009v-1.9h1.678c-0.209 0.391-0.45 0.744-0.719 1.066zM7.991 10v-2.009h2.531c-0.044 0.697-0.181 1.366-0.412 2.009h-2.119zM11.319 11.328c-0.288 0.288-0.609 0.541-0.962 0.759 0.137-0.225 0.269-0.456 0.388-0.703 0.066-0.131 0.125-0.262 0.181-0.397h0.703c-0.097 0.119-0.2 0.234-0.309 0.341zM12.472 9.603c-0.059 0.137-0.122 0.269-0.187 0.397h-1.006c0.184-0.641 0.291-1.313 0.325-2.009h1.278c-0.050 0.556-0.184 1.094-0.409 1.613z"></path>
</svg>
