<?xml version="1.0" encoding="utf-8"?>
<!-- Generated by IcoMoon.io -->
<!DOCTYPE svg PUBLIC "-//W3C//DTD SVG 1.1//EN" "http://www.w3.org/Graphics/SVG/1.1/DTD/svg11.dtd">
<svg version="1.1" xmlns="http://www.w3.org/2000/svg" xmlns:xlink="http://www.w3.org/1999/xlink" width="14" height="14" viewBox="0 0 14 14">
<path d="M10.096 7.571l-2.523 3.059c-0.494 0.494-0.659 0.487-1.147 0l-2.523-3.059c-0.315-0.315-0.208-0.573 0.237-0.573h1.859v-2.75c-0-0.072 0.013-0.132 0.060-0.179s0.107-0.071 0.179-0.071h1.5c0.072-0 0.132 0.024 0.179 0.071s0.081 0.107 0.081 0.179v2.75h1.859c0.446 0 0.553 0.258 0.237 0.573v0zM12 0h-12v14h14v-12l-2-2zM12 12h-10.014l0.014-10h9l1 1v9z"></path>
</svg>
