<?xml version="1.0" encoding="utf-8"?>
<!-- Generator: Adobe Illustrator 20.1.0, SVG Export Plug-In . SVG Version: 6.00 Build 0)  -->
<svg version="1.1" id="Layer_1" xmlns="http://www.w3.org/2000/svg" xmlns:xlink="http://www.w3.org/1999/xlink" x="0px" y="0px"
	 viewBox="0 0 448 448" style="enable-background:new 0 0 448 448;" xml:space="preserve">
<path d="M296.6,309.3c-10.2-10.2-5.7-20.6,8.7-20.6h116.5c22.6,0,26.2,3.9,26.2,26.2v115.5c0,14.4-8.4,17.9-18.6,7.7L296.6,309.3
	L296.6,309.3z"/>
<path d="M224.5,392c-44.9,0-87.1-17.5-118.8-49.2S56.5,268.9,56.5,224c0-10.9,1-21.6,3-32H2.8c-1.5,10.5-2.3,21.1-2.3,32
	c0,123.7,100.3,224,224,224c61.9,0,117.8-25.1,158.4-65.6L411,316l-67.7,26.8C311.5,374.5,269.4,392,224.5,392L224.5,392L224.5,392z
	"/>
<path d="M224,0C164.5,0,110.6,23.2,70.5,60.9L18.6,10.6C8.4,0.4,0,3.8,0,18.2v115.6C0,156.1,3.6,160,26.2,160h98
	c7,7.6,17.3,17.5,21.9,24.1c-2.6,5-2.2,7.3-3.8,12.6l-41.6,2c-2.6,0.4-4.6,3.4-4.6,6v37.1c0,2.8,2,5.4,4.8,5.8l42,2.7
	c1.8,5.6,1.4,3.8,4.2,9.3c-5.8,7.8-20.5,24.5-26.3,32.1c-0.8,1.2-1.4,2.4-1.4,3.8c0,5.8,23.7,27.3,28.9,32.1c1.2,1,2.6,1.6,4.2,1.6
	c1.4,0,3-0.4,4-1.4l29.6-27.6c4.8,2.4,5.2,2.2,10.5,3.8l3.3,42.8c0.4,2.8,3.2,5,6,5h37.3c2.8,0,5.2-2,6-4.8c2.6-9.8,0.7-32.7,1.7-43
	c5.4-1.6,4.9-1.9,10-4.5l31.5,28.2c1.2,0.8,2.6,1.4,4.2,1.4c5.8,0,28.3-24.5,32.3-29.9c1-1,1.4-2.4,1.4-3.8c0-1.6-0.6-2.8-1.4-4
	c-6.4-7.6-23.2-21.8-28.8-29.8c2.6-5,2.1-4.9,3.7-10.2l44.6-3.3c2.6-0.4,4.6-3.4,4.6-6V205c-0.1-2.5-2.1-5.1-4.9-5.7l0,0l-42.8-3.5
	c-1.8-5.6-0.9-4-3.5-9.5c5.6-7.8,20.6-23.2,26.4-31c0.8-1.2,1.4-2.4,1.4-3.8c0-5.6-23.7-27.3-28.9-32.1c-1.2-1-2.6-1.6-4.2-1.6
	c-1.4,0-2.8,0.4-4,1.4l-29.8,26c-4.8-2.4-5.5-2.4-10.8-4l-2.7-41.1c-0.4-2.8-3.2-5-6-5h-37.3c-2.8,0-5.2,2-6,4.8
	c-2.6,9.8-1.3,31.5-2.3,41.6c-5.4,1.8-4.9,2.2-10,4.8l-30.9-27.1c-1.2-0.8-2.6-1.4-4.2-1.4c-2.4,0-7.8,4.3-13.5,9.6l-28.3-27.5
	C141.7,71.6,181.7,56,224,56c44.9,0,87.1,17.5,118.8,49.2C374.5,136.9,392,179.1,392,224c0,10.9-1,21.6-3,32h56.7
	c1.5-10.5,2.3-21.1,2.3-32C448,100.3,347.7,0,224,0z M223.8,173.6c27.7,0,50.2,22.5,50.2,50.2S251.5,274,223.8,274
	c-27.6,0-50.2-22.5-50.2-50.2S196.1,173.6,223.8,173.6z"/>
</svg>
