<?xml version="1.0" encoding="utf-8"?>
<!-- Generated by IcoMoon.io -->
<!DOCTYPE svg PUBLIC "-//W3C//DTD SVG 1.1//EN" "http://www.w3.org/Graphics/SVG/1.1/DTD/svg11.dtd">
<svg version="1.1" xmlns="http://www.w3.org/2000/svg" xmlns:xlink="http://www.w3.org/1999/xlink" width="15" height="14" viewBox="0 0 15 14">
<path fill="#449fdb" d="M14.977 0h0.031v14h-0.031v-14z"></path>
<path fill="#000" d="M2.985 9.503c0 0.41-0.146 0.763-0.438 1.060s-0.642 0.444-1.053 0.444c-0.419 0-0.775-0.148-1.067-0.444s-0.438-0.649-0.438-1.060 0.146-0.763 0.438-1.060c0.292-0.296 0.647-0.444 1.067-0.444 0.41 0 0.761 0.148 1.053 0.444s0.438 0.65 0.438 1.060zM4.994 1.5c0 0.419-0.148 0.775-0.444 1.067s-0.649 0.438-1.060 0.438-0.763-0.146-1.060-0.438c-0.296-0.292-0.444-0.647-0.444-1.067 0-0.41 0.148-0.763 0.444-1.060s0.649-0.444 1.060-0.444 0.763 0.148 1.060 0.444c0.296 0.297 0.444 0.65 0.444 1.060zM10.3 8.122c0.055-0.182 0.098-0.364 0.13-0.547s0.048-0.374 0.048-0.574c0-0.374-0.057-0.732-0.171-1.073s-0.271-0.658-0.472-0.95l1.19-1.217c0.146 0.073 0.301 0.132 0.465 0.178s0.333 0.068 0.506 0.068c0.547 0 1.047-0.196 1.44-0.588s0.588-0.862 0.588-1.408c0-0.556-0.196-1.030-0.588-1.422s-0.893-0.588-1.44-0.588c-0.556 0-1.062 0.196-1.453 0.588s-0.588 0.862-0.588 1.408c0 0.201 0.059 0.392 0.113 0.574s0.101 0.351 0.201 0.506l-1.131 1.176c-0.292-0.228-0.622-0.408-0.991-0.54s-0.754-0.198-1.155-0.198c-0.228 0-0.453 0.023-0.677 0.068s-0.435 0.109-0.636 0.192l-0.192-0.26c-0.091-0.128-0.21-0.205-0.356-0.233s-0.273 0-0.383 0.082c-0.109 0.082-0.171 0.196-0.185 0.342s0.025 0.278 0.116 0.397l0.137 0.192c-0.401 0.31-0.72 0.702-0.957 1.176s-0.356 0.984-0.356 1.531c0 0.155 0.009 0.307 0.027 0.458s0.050 0.294 0.096 0.431l-0.041 0.014c-0.137 0.064-0.233 0.164-0.287 0.301s-0.055 0.269 0 0.397c0.055 0.118 0.148 0.201 0.28 0.246s0.262 0.037 0.39-0.027l0.041-0.014c0.237 0.401 0.547 0.741 0.93 1.019s0.811 0.503 1.285 0.612l-0.046 0.531c-0.337 0.082-0.658 0.271-0.882 0.544s-0.335 0.593-0.335 0.957c0 0.428 0.146 0.791 0.438 1.087s0.678 0.444 1.098 0.444c0.41 0 0.792-0.148 1.084-0.444s0.438-0.658 0.438-1.087c0-0.301-0.078-0.572-0.233-0.813s-0.393-0.451-0.639-0.578l0.075-0.591c0.547-0.036 1.048-0.187 1.504-0.451s0.829-0.606 1.121-1.026l0.943 0.642c0.118 0.082 0.251 0.114 0.397 0.096s0.255-0.087 0.328-0.205c0.073-0.118 0.091-0.248 0.055-0.39s-0.118-0.253-0.246-0.335l-1.025-0.697zM7 9.008c-0.557 0-1.029-0.197-1.417-0.59s-0.583-0.868-0.583-1.424c0-0.556 0.194-1.029 0.583-1.417s0.861-0.583 1.417-0.583c0.556 0 1.029 0.194 1.417 0.583s0.583 0.861 0.583 1.417c0 0.557-0.194 1.031-0.583 1.424s-0.861 0.59-1.417 0.59zM6.495 13.094c-0.16 0-0.299-0.058-0.416-0.175s-0.175-0.259-0.175-0.426 0.058-0.307 0.175-0.421c0.117-0.113 0.255-0.17 0.416-0.17 0.167 0 0.309 0.057 0.426 0.17s0.175 0.254 0.175 0.421-0.058 0.309-0.175 0.426c-0.117 0.117-0.259 0.175-0.426 0.175zM12.77 1.23c0.21 0.21 0.315 0.464 0.315 0.763 0 0.308-0.105 0.567-0.315 0.777s-0.464 0.315-0.763 0.315c-0.308 0-0.567-0.105-0.777-0.315s-0.315-0.469-0.315-0.777c0-0.299 0.105-0.553 0.315-0.763s0.469-0.315 0.777-0.315c0.299 0 0.553 0.105 0.763 0.315zM14.99 10.501c0 0.419-0.146 0.775-0.438 1.067s-0.647 0.438-1.067 0.438c-0.41 0-0.761-0.146-1.053-0.438s-0.438-0.647-0.438-1.067c0-0.41 0.146-0.763 0.438-1.060s0.642-0.444 1.053-0.444c0.419 0 0.775 0.148 1.067 0.444s0.438 0.65 0.438 1.060z"></path>
</svg>
