<?xml version="1.0" encoding="utf-8"?>
<!-- Generated by IcoMoon.io -->
<!DOCTYPE svg PUBLIC "-//W3C//DTD SVG 1.1//EN" "http://www.w3.org/Graphics/SVG/1.1/DTD/svg11.dtd">
<svg version="1.1" xmlns="http://www.w3.org/2000/svg" xmlns:xlink="http://www.w3.org/1999/xlink" width="15" height="14" viewBox="0 0 15 14">
<path d="M13.459 2c-0.722-1.019-1.794-1.691-3.016-1.897-1.209-0.206-2.425 0.075-3.419 0.787-0.613 0.438-1.084 1.003-1.406 1.637-1.106-0.109-2.2 0.178-3.109 0.828-2.056 1.469-2.519 4.369-1.031 6.466 0.722 1.022 1.797 1.697 3.025 1.9 0.316 0.053 0.634 0.072 0.947 0.059 0.050 0.081 0.103 0.159 0.159 0.237 0.722 1.022 1.797 1.697 3.025 1.9 0.55 0.091 1.103 0.081 1.634-0.022 0.631-0.125 1.234-0.384 1.778-0.769 0.997-0.716 1.65-1.784 1.844-3.006 0.147-0.941 0.009-1.887-0.391-2.734 0.397-0.566 0.662-1.222 0.775-1.928 0.191-1.219-0.097-2.447-0.816-3.459zM7.609 1.706c0.419-0.3 0.887-0.5 1.381-0.597 0.419-0.081 0.853-0.087 1.284-0.012 0.959 0.159 1.797 0.688 2.363 1.484 0.831 1.175 0.884 2.672 0.263 3.85-0.716-0.887-1.712-1.475-2.841-1.666-0.319-0.053-0.641-0.072-0.956-0.059-0.050-0.081-0.103-0.163-0.159-0.241-0.578-0.816-1.378-1.406-2.3-1.716 0.241-0.4 0.566-0.756 0.966-1.044zM6.019 10.7c-0.425-1.025-0.359-2.175 0.144-3.119 0.556 0.7 1.291 1.213 2.125 1.494-0.241 0.4-0.563 0.756-0.962 1.044-0.397 0.281-0.841 0.478-1.306 0.581zM8.681 8.141c-0.75-0.237-1.4-0.712-1.869-1.369-0.009-0.012-0.016-0.025-0.025-0.038 0.131-0.131 0.278-0.256 0.434-0.366 0.397-0.284 0.841-0.478 1.306-0.581 0.312 0.759 0.356 1.591 0.153 2.353zM6.641 5.553c-0.113 0.081-0.219 0.163-0.322 0.253-0.234-0.697-0.253-1.438-0.072-2.122 0.691 0.216 1.294 0.631 1.75 1.206-0.478 0.141-0.937 0.362-1.356 0.662zM9.578 5.719c0.103 0.009 0.206 0.022 0.309 0.041 0.959 0.159 1.797 0.688 2.362 1.484 0.009 0.012 0.016 0.022 0.025 0.034-0.131 0.131-0.278 0.256-0.434 0.369-0.634 0.456-1.384 0.684-2.159 0.662 0.031-0.125 0.056-0.256 0.078-0.384 0.116-0.75 0.053-1.5-0.181-2.206zM4.669 10.731c-0.962-0.163-1.803-0.691-2.372-1.491-1.169-1.647-0.813-3.919 0.794-5.066 0.419-0.3 0.887-0.5 1.381-0.597 0.256-0.053 0.519-0.075 0.784-0.066-0.25 1.019-0.156 2.125 0.312 3.119-0.834 1.191-1.059 2.734-0.594 4.138-0.1-0.009-0.203-0.022-0.306-0.038zM11.453 12.309c-0.769 0.553-1.712 0.772-2.656 0.616-0.894-0.15-1.684-0.619-2.247-1.325 0.481-0.141 0.941-0.366 1.366-0.669 0.6-0.431 1.078-0.991 1.403-1.634 0.45 0.044 0.9 0.022 1.334-0.062 0.634-0.125 1.237-0.384 1.778-0.769 0.109-0.078 0.213-0.159 0.312-0.247 0.491 1.475 0.012 3.153-1.291 4.091z"></path>
</svg>
