<?xml version="1.0" encoding="utf-8"?>
<!-- Generated by IcoMoon.io -->
<!DOCTYPE svg PUBLIC "-//W3C//DTD SVG 1.1//EN" "http://www.w3.org/Graphics/SVG/1.1/DTD/svg11.dtd">
<svg version="1.1" xmlns="http://www.w3.org/2000/svg" xmlns:xlink="http://www.w3.org/1999/xlink" width="14" height="14" viewBox="0 0 14 14">
<path d="M8 2.682c1.171 0.275 2.16 1.023 2.76 2.032l2.538-0.825c-0.996-2.057-2.96-3.553-5.297-3.889v2.682zM3.248 4.701c0.6-1.002 1.586-1.745 2.752-2.019v-2.682c-2.33 0.335-4.29 1.824-5.289 3.872l2.537 0.829zM2.104 11.992l1.575-2.165c-0.657-0.769-1.054-1.769-1.054-2.863 0-0.12 0.005-0.238 0.014-0.356l-2.54-0.83c-0.065 0.385-0.1 0.781-0.1 1.185 0 1.97 0.806 3.751 2.104 5.028zM8.684 11.024c-0.518 0.217-1.087 0.338-1.684 0.338-0.607 0-1.184-0.124-1.709-0.348l-1.575 2.165c0.98 0.524 2.098 0.822 3.285 0.822 1.177 0 2.286-0.292 3.259-0.808l-1.576-2.168zM11.362 6.624c0.009 0.112 0.013 0.226 0.013 0.34 0 1.103-0.405 2.112-1.072 2.884l1.573 2.164c1.31-1.279 2.124-3.067 2.124-5.048 0-0.398-0.033-0.787-0.096-1.167l-2.542 0.827z"></path>
</svg>
