<?xml version="1.0" encoding="utf-8"?>
<!-- Generated by IcoMoon.io -->
<!DOCTYPE svg PUBLIC "-//W3C//DTD SVG 1.1//EN" "http://www.w3.org/Graphics/SVG/1.1/DTD/svg11.dtd">
<svg version="1.1" xmlns="http://www.w3.org/2000/svg" xmlns:xlink="http://www.w3.org/1999/xlink" width="14" height="14" viewBox="0 0 14 14">
<path d="M4.744 3c-0.487 0-0.9 0.169-1.241 0.509s-0.509 0.753-0.509 1.241 0.169 0.9 0.509 1.241c0.341 0.341 0.753 0.509 1.241 0.509s0.9-0.169 1.241-0.509c0.341-0.341 0.509-0.753 0.509-1.241s-0.169-0.9-0.509-1.241c-0.344-0.341-0.756-0.509-1.241-0.509zM9.25 3c-0.487 0-0.9 0.169-1.241 0.509-0.338 0.338-0.509 0.753-0.509 1.241s0.169 0.9 0.509 1.241c0.341 0.341 0.753 0.509 1.241 0.509s0.9-0.169 1.241-0.509c0.341-0.341 0.509-0.753 0.509-1.241s-0.169-0.9-0.509-1.241c-0.338-0.341-0.753-0.509-1.241-0.509zM10.147 5.641c-0.247 0.247-0.547 0.372-0.894 0.372s-0.647-0.125-0.894-0.372c-0.247-0.247-0.372-0.547-0.372-0.894s0.125-0.647 0.372-0.894c0.247-0.247 0.547-0.372 0.894-0.372s0.647 0.125 0.894 0.372c0.247 0.247 0.372 0.547 0.372 0.894s-0.122 0.647-0.372 0.894zM9.25 7.491c-0.487 0-0.9 0.169-1.241 0.509s-0.509 0.753-0.509 1.241c0 0.487 0.169 0.9 0.509 1.241s0.753 0.509 1.241 0.509 0.9-0.169 1.241-0.509c0.341-0.341 0.509-0.753 0.509-1.241s-0.169-0.9-0.509-1.241c-0.338-0.341-0.753-0.509-1.241-0.509zM10.147 10.134c-0.247 0.247-0.547 0.372-0.894 0.372s-0.647-0.125-0.894-0.372c-0.247-0.247-0.372-0.547-0.372-0.894s0.125-0.647 0.372-0.894c0.247-0.247 0.547-0.372 0.894-0.372s0.647 0.125 0.894 0.372c0.247 0.247 0.372 0.547 0.372 0.894s-0.122 0.647-0.372 0.894zM4.744 7.491c-0.487 0-0.9 0.169-1.241 0.509s-0.509 0.753-0.509 1.241c0 0.487 0.169 0.9 0.509 1.241s0.753 0.509 1.241 0.509c0.487 0 0.9-0.169 1.241-0.509s0.509-0.753 0.509-1.241c0-0.487-0.169-0.9-0.509-1.241s-0.753-0.509-1.241-0.509zM5.641 10.134c-0.247 0.247-0.547 0.372-0.894 0.372s-0.647-0.125-0.894-0.372c-0.247-0.247-0.372-0.547-0.372-0.894s0.125-0.647 0.372-0.894c0.247-0.247 0.547-0.372 0.894-0.372s0.647 0.125 0.894 0.372c0.247 0.247 0.372 0.547 0.372 0.894s-0.125 0.647-0.372 0.894zM13.053 3.491c-0.625-1.072-1.472-1.919-2.544-2.544s-2.241-0.937-3.509-0.937c-1.269 0-2.438 0.312-3.509 0.937s-1.919 1.472-2.544 2.544c-0.625 1.072-0.937 2.241-0.937 3.509s0.312 2.438 0.937 3.509 1.472 1.919 2.544 2.544 2.241 0.937 3.509 0.937c1.269 0 2.438-0.312 3.509-0.937s1.919-1.472 2.544-2.544 0.937-2.241 0.937-3.509c0-1.269-0.312-2.438-0.937-3.509zM12.359 9.263c-0.309 0.719-0.725 1.338-1.244 1.856s-1.137 0.934-1.856 1.244c-0.719 0.309-1.472 0.466-2.263 0.466-0.788 0-1.544-0.156-2.263-0.466s-1.338-0.725-1.856-1.244c-0.519-0.519-0.934-1.138-1.244-1.856s-0.466-1.472-0.466-2.263c0-0.788 0.156-1.544 0.466-2.263s0.725-1.338 1.244-1.856c0.519-0.519 1.138-0.934 1.856-1.244s1.472-0.466 2.263-0.466c0.787 0 1.544 0.153 2.263 0.466 0.719 0.309 1.338 0.725 1.856 1.244s0.934 1.137 1.244 1.856c0.309 0.719 0.466 1.472 0.466 2.263 0 0.788-0.153 1.544-0.466 2.263z"></path>
</svg>
