<?xml version="1.0" encoding="utf-8"?>
<!-- Generated by IcoMoon.io -->
<!DOCTYPE svg PUBLIC "-//W3C//DTD SVG 1.1//EN" "http://www.w3.org/Graphics/SVG/1.1/DTD/svg11.dtd">
<svg version="1.1" xmlns="http://www.w3.org/2000/svg" xmlns:xlink="http://www.w3.org/1999/xlink" width="14" height="14" viewBox="0 0 14 14">
<path d="M13.975 12.27l-3.83-3.83c0.724-1.131 1.031-2.56 0.724-4.059-0.377-1.875-2.233-3.771-4.099-4.188-3.989-0.883-7.463 2.588-6.58 6.579 0.479 2.074 2.107 3.669 4.163 4.093 1.543 0.313 2.962-0.004 4.104-0.738l3.83 3.83zM5.52 2.048c1.918 0 3.473 1.555 3.473 3.473s-1.555 3.473-3.473 3.473c-1.918 0-3.473-1.555-3.473-3.473 0.002-1.917 1.556-3.471 3.473-3.473z"></path>
</svg>
