<?xml version="1.0" encoding="utf-8"?>
<!-- Generated by IcoMoon.io -->
<!DOCTYPE svg PUBLIC "-//W3C//DTD SVG 1.1//EN" "http://www.w3.org/Graphics/SVG/1.1/DTD/svg11.dtd">
<svg version="1.1" xmlns="http://www.w3.org/2000/svg" xmlns:xlink="http://www.w3.org/1999/xlink" width="14" height="14" viewBox="0 0 14 14">
<path d="M13.822 9.175c-0.128-0.184-0.3-0.319-0.513-0.397l-0.412-0.15-1.775 0.709 1.172 0.434-5.253 1.919-0.012-0.003-5.225-1.909 1.137-0.425-1.816-0.725-0.412 0.15c-0.213 0.078-0.384 0.209-0.513 0.397-0.113 0.163-0.178 0.341-0.191 0.534h-0.003v0.169l0.006 0.003c0.016 0.159 0.062 0.306 0.147 0.447 0.1 0.169 0.237 0.3 0.412 0.397l5.928 2.391c0.153 0.087 0.319 0.131 0.5 0.134v0c0.003 0 0.006 0 0.009 0 0 0 0.003 0 0.003 0s0.003 0 0.003 0 0.006 0 0.009 0v0c0.178-0.003 0.347-0.047 0.5-0.134l5.931-2.394c0.175-0.097 0.312-0.228 0.412-0.397 0.084-0.141 0.131-0.288 0.147-0.447l0.006-0.003v-0.206l-0.006 0.003c-0.025-0.178-0.088-0.344-0.194-0.497zM13.822 5.878c-0.128-0.184-0.3-0.319-0.513-0.397l-0.412-0.15-1.775 0.709 1.172 0.434-5.253 1.919-0.012-0.003-5.225-1.909 1.137-0.425-1.816-0.722-0.412 0.15c-0.213 0.078-0.384 0.209-0.513 0.397-0.113 0.163-0.178 0.341-0.191 0.534h-0.003v0.169l0.006 0.003c0.016 0.159 0.062 0.306 0.147 0.447 0.1 0.169 0.237 0.3 0.412 0.397l5.928 2.388c0.153 0.087 0.319 0.131 0.5 0.134v0c0.003 0 0.006 0 0.009 0 0 0 0.003 0 0.003 0s0.003 0 0.003 0 0.006 0 0.009 0v0c0.178-0.003 0.347-0.047 0.5-0.134l5.931-2.394c0.175-0.097 0.312-0.228 0.412-0.397 0.084-0.141 0.131-0.288 0.147-0.447l0.006-0.003v-0.203l-0.006 0.003c-0.025-0.181-0.088-0.347-0.194-0.5zM10.672 3.769l-1.584 0.581 0.434 1.197 1.341-0.484-0.006-0.003 0.25-0.091zM4.912 4.337l-1.584-0.581-0.441 1.219 1.587 0.575zM14.009 3.119c-0.019-0.178-0.081-0.347-0.187-0.5-0.128-0.184-0.3-0.319-0.513-0.397l-5.931-2.156c-0.119-0.044-0.237-0.066-0.356-0.066v0c-0.003 0-0.006 0-0.009 0 0 0-0.003 0-0.003 0s-0.003 0-0.003 0-0.006 0-0.009 0v0c-0.119 0.003-0.237 0.025-0.356 0.066l-5.931 2.156c-0.209 0.081-0.381 0.213-0.513 0.397-0.113 0.166-0.175 0.344-0.191 0.537h-0.003v0.169l0.006 0.003c0.016 0.159 0.062 0.306 0.147 0.447 0.1 0.169 0.237 0.3 0.412 0.397l1.35 0.544 0.003-0.009 0.441-1.222 0.066-0.025-0.628-0.228 5.238-1.95 5.253 1.947-0.684 0.25 0.028 0.025 0.434 1.203 0.028 0.019 1.353-0.547c0.175-0.097 0.312-0.228 0.412-0.397 0.084-0.141 0.131-0.288 0.147-0.447l0.006-0.003v-0.206l-0.006-0.006zM7.003 5.1l-1.128-0.412-0.438 1.209 0.45 0.163h-0.025l0.603 0.244c0.153 0.088 0.319 0.131 0.5 0.134v0c0.003 0 0.006 0 0.009 0 0 0 0.003 0 0.003 0s0.003 0 0.003 0 0.006 0 0.009 0v0c0.178-0.003 0.347-0.047 0.5-0.134l0.603-0.244 0.469-0.169-0.438-1.191-1.109 0.406-0.012-0.006z"></path>
</svg>
