<?xml version="1.0" encoding="utf-8"?>
<!-- Generator: Adobe Illustrator 20.1.0, SVG Export Plug-In . SVG Version: 6.00 Build 0)  -->
<svg version="1.1" id="Layer_1" xmlns="http://www.w3.org/2000/svg" xmlns:xlink="http://www.w3.org/1999/xlink" x="0px" y="0px"
	 viewBox="0 0 480 448" style="enable-background:new 0 0 480 448;" xml:space="preserve">
<g>
	<path d="M223,93.4l0,0.3C223.1,93.6,223.1,93.5,223,93.4z"/>
	<path d="M80.7,379.2C51.3,381.9,32,415.8,32,415.8V32C0,33,0,62,0,62v356c1.3,38,48,29,48,29c48-67.7,176,1,176,1v-31.2
		C169,381,118,375,80.7,379.2z"/>
	<path d="M160.4,357.5c23.4,4.1,48.5,23,62.6,26.4V352h-1.7c-0.1,0-0.2,0-0.3,0l2,0v-79.5v-95V95.4V94l0-0.3c0,0,0,0,0,0v-0.3
		c0,0,0,0,0,0l0.1-25.4c0,0-0.1,0-0.1-0.1V65v-0.6C170.8,30.8,103.1,7.9,64,0.6v354.9C92.7,347.6,116.6,349.7,160.4,357.5z"/>
	<path d="M257,93.4C256.9,93.5,256.9,93.5,257,93.4L257,93.4z"/>
	<path d="M448,32v383.8c0,0-19.3-33.9-48.7-36.6C362,375,311,381,256,416.8V448c0,0,128-68.7,176-1c0,0,46.7,9,48-29V62
		C480,62,480,33,448,32z"/>
	<path d="M257,177.5v95V352l4.6-0.8c-0.9,0.5-1.9,0.8-2.9,0.8H257v31.9c14.1-3.4,39.2-22.3,62.6-26.4c43.8-7.8,67.7-9.9,96.4-2V0.6
		c-39.1,7.3-106.8,30.2-159,63.7V93h0V67.9c0,0.1-0.1,0.1-0.1,0.1l0.1,25.4V177.5z"/>
</g>
</svg>
