<?xml version="1.0" encoding="utf-8"?>
<!-- Generated by IcoMoon.io -->
<!DOCTYPE svg PUBLIC "-//W3C//DTD SVG 1.1//EN" "http://www.w3.org/Graphics/SVG/1.1/DTD/svg11.dtd">
<svg version="1.1" xmlns="http://www.w3.org/2000/svg" xmlns:xlink="http://www.w3.org/1999/xlink" width="14" height="14" viewBox="0 0 14 14">
<path d="M5.031 13.971l-0.031-2.971c-0.649-0.594-0.99-1.226-0.99-2.477v0 0c-0.011-1.513 0.521-3.523 2.505-3.523h0.977c2.005-0.003 2.491 2 2.504 3.516v0c0 1.254-0.285 1.871-0.966 2.494v0l-0.031 2.955z"></path>
<path d="M9 2.5c0 1.105-0.896 2.001-2.001 2.001s-2.001-0.896-2.001-2.001c0-1.105 0.896-2.001 2.001-2.001s2.001 0.896 2.001 2.001z"></path>
<path d="M4 3.496c0 0.83-0.673 1.502-1.502 1.502s-1.502-0.673-1.502-1.502c0-0.83 0.673-1.502 1.502-1.502s1.502 0.673 1.502 1.502z"></path>
<path d="M4.004 13.004l0.006-2.008c0 0-1.023-0.565-1.038-2.505v0 0 0 0c-0.014-1.085 0.194-2.065 1.036-2.993h-1.226c-2.782 0.002-2.727 1.564-2.748 2.639 0.018 0.901-0.011 1.867-0.011 1.867l0.023 2.996z"></path>
<path d="M13.005 3.496c0 0.83-0.673 1.502-1.502 1.502s-1.502-0.673-1.502-1.502c0-0.83 0.673-1.502 1.502-1.502s1.502 0.673 1.502 1.502z"></path>
<path d="M10.027 13.004l-0.006-2.008c0 0 0.982-0.872 1.006-2.505v0 0 0 0c0.014-1.085-0.163-2.065-1.005-2.993v0h1.195c2.782 0.002 2.758 1.564 2.78 2.639-0.018 0.901-0.006 1.867-0.006 1.867l0.009 2.996z"></path>
</svg>
