<?xml version="1.0" encoding="utf-8"?>
<!-- Generated by IcoMoon.io -->
<!DOCTYPE svg PUBLIC "-//W3C//DTD SVG 1.1//EN" "http://www.w3.org/Graphics/SVG/1.1/DTD/svg11.dtd">
<svg version="1.1" xmlns="http://www.w3.org/2000/svg" xmlns:xlink="http://www.w3.org/1999/xlink" width="15" height="14" viewBox="0 0 15 14">
<path d="M14.241 6.55c-0.403-0.456-0.937-0.869-1.937-1.219 0.563-1.313 0.006-2.069-0.388-2.459-0.384-0.391-0.856-0.587-1.409-0.587-0.5 0-0.931 0.163-1.297 0.484-0.006-0.009-0.012-0.019-0.019-0.025l-1.003 7.444-6.194-4.834c-0.597 0.281-1.081 0.703-1.45 1.272s-0.553 1.197-0.553 1.884c0 0.962 0.344 1.788 1.028 2.472s1.509 1.028 2.472 1.028h8.5c0.828 0 1.534-0.294 2.122-0.878 0.587-0.587 0.878-1.444 0.878-2.122 0-0.338 0.15-1.447-0.75-2.459zM1.806 4.041l5.763 4.5 0.934-6.928c-1.016-1.403-2.219-1.613-2.978-1.613-1.025 0-1.906 0.362-2.631 1.091s-1.091 1.606-1.091 2.631c0 0.072 0.006 0.178 0.016 0.312-0.003 0.003-0.009 0.003-0.012 0.006z"></path>
</svg>
