<?xml version="1.0" encoding="utf-8"?>
<!-- Generated by IcoMoon.io -->
<!DOCTYPE svg PUBLIC "-//W3C//DTD SVG 1.1//EN" "http://www.w3.org/Graphics/SVG/1.1/DTD/svg11.dtd">
<svg version="1.1" xmlns="http://www.w3.org/2000/svg" xmlns:xlink="http://www.w3.org/1999/xlink" width="14" height="14" viewBox="0 0 14 14">
<path d="M12.178 1.997c-0.534-0.306-1.266-0.55-2.184-0.728s-1.922-0.269-3.003-0.269c-1.084 0-2.084 0.091-3.006 0.269-0.919 0.181-1.65 0.422-2.181 0.728-0.534 0.309-0.803 0.641-0.803 1v2.031c0 0.359 0.269 0.694 0.803 1s1.266 0.55 2.184 0.728c0.919 0.178 1.922 0.269 3.003 0.269s2.084-0.091 3.003-0.269c0.919-0.178 1.65-0.422 2.184-0.728 0.534-0.309 0.803-0.641 0.803-1v-2.031c0-0.359-0.269-0.694-0.803-1zM6.988 8.022c-1.231 0-2.384-0.109-3.456-0.334-1.072-0.222-1.916-0.553-2.531-0.991v3.328c0 0.359 0.269 0.694 0.803 1s1.263 0.55 2.184 0.728c0.919 0.178 1.922 0.269 3.003 0.269s2.081-0.091 3.003-0.269c0.919-0.178 1.65-0.422 2.184-0.728 0.534-0.309 0.803-0.641 0.803-1v-3.328c-0.622 0.438-1.466 0.766-2.538 0.991-1.072 0.222-2.225 0.334-3.456 0.334z"></path>
</svg>
