<?xml version="1.0" encoding="utf-8"?>
<!-- Generated by IcoMoon.io -->
<!DOCTYPE svg PUBLIC "-//W3C//DTD SVG 1.1//EN" "http://www.w3.org/Graphics/SVG/1.1/DTD/svg11.dtd">
<svg version="1.1" xmlns="http://www.w3.org/2000/svg" xmlns:xlink="http://www.w3.org/1999/xlink" width="17" height="14" viewBox="0 0 17 14">
<path d="M13.931 13.069c-0.050-0.044-0.109-0.069-0.181-0.069h-4.75v-10.084c0.519-0.184 0.906-0.644 0.984-1.2v0.006l3.766-0.738c0.072-0.012 0.128-0.047 0.163-0.103 0.038-0.056 0.047-0.119 0.034-0.191l-0.097-0.491c-0.012-0.072-0.047-0.128-0.103-0.163s-0.119-0.047-0.191-0.034l-3.762 0.734v0.006c-0.259-0.444-0.741-0.744-1.294-0.744-0.756 0-1.381 0.559-1.484 1.284v-0.006l-3.766 0.734c-0.072 0.012-0.128 0.047-0.163 0.103s-0.047 0.119-0.034 0.191l0.097 0.491c0.012 0.072 0.047 0.128 0.103 0.163 0.056 0.038 0.119 0.047 0.191 0.034l3.766-0.734c0.178 0.303 0.459 0.537 0.794 0.656v10.084h-4.753c-0.075 0-0.137 0.019-0.181 0.069s-0.069 0.109-0.069 0.181v0.5c0 0.072 0.019 0.137 0.069 0.181s0.109 0.069 0.181 0.069h10.5c0.075 0 0.137-0.019 0.181-0.069s0.069-0.109 0.069-0.181v-0.5c0-0.075-0.019-0.137-0.069-0.181zM8.5 0.875c0.344 0 0.625 0.281 0.625 0.625s-0.281 0.625-0.625 0.625-0.625-0.281-0.625-0.625 0.281-0.625 0.625-0.625zM16.725 7.119c-0.181-0.366-0.422-0.819-0.719-1.362s-0.575-1.053-0.837-1.528c-0.259-0.475-0.525-0.953-0.797-1.438s-0.416-0.744-0.438-0.781c-0.094-0.172-0.241-0.256-0.438-0.256s-0.344 0.088-0.438 0.256c-0.022 0.038-0.166 0.297-0.438 0.781s-0.537 0.962-0.797 1.438c-0.259 0.475-0.537 0.984-0.834 1.528s-0.537 1-0.719 1.362c-0.181 0.366-0.275 0.575-0.275 0.631 0 0.381 0.122 0.722 0.362 1.025 0.244 0.303 0.547 0.537 0.919 0.712 0.369 0.172 0.747 0.3 1.128 0.388s0.75 0.125 1.094 0.125 0.706-0.044 1.091-0.128 0.759-0.216 1.128-0.388c0.369-0.172 0.675-0.409 0.919-0.712s0.362-0.644 0.362-1.025c0-0.053-0.091-0.266-0.275-0.628zM10.5 7.75l3-5.5 3 5.5h-6zM6.009 7.753c-0.297-0.544-0.575-1.053-0.837-1.528-0.259-0.475-0.525-0.953-0.797-1.438s-0.416-0.744-0.438-0.781c-0.094-0.172-0.241-0.256-0.438-0.256s-0.344 0.087-0.438 0.256c-0.022 0.038-0.166 0.297-0.438 0.781s-0.537 0.962-0.797 1.438c-0.259 0.475-0.537 0.984-0.837 1.528-0.297 0.544-0.537 1-0.719 1.362-0.181 0.366-0.272 0.578-0.272 0.634 0 0.381 0.122 0.722 0.362 1.025 0.244 0.303 0.547 0.537 0.919 0.712 0.369 0.172 0.747 0.3 1.128 0.388s0.747 0.125 1.091 0.125 0.706-0.044 1.091-0.128 0.759-0.216 1.128-0.388c0.369-0.172 0.675-0.409 0.919-0.712s0.362-0.644 0.362-1.025c0-0.056-0.091-0.269-0.275-0.631-0.181-0.362-0.419-0.819-0.716-1.362zM3.5 4.25l2.047 3.75h-4.094l2.047-3.75z"></path>
</svg>
