<?xml version="1.0" encoding="utf-8"?>
<!-- Generated by IcoMoon.io -->
<!DOCTYPE svg PUBLIC "-//W3C//DTD SVG 1.1//EN" "http://www.w3.org/Graphics/SVG/1.1/DTD/svg11.dtd">
<svg version="1.1" xmlns="http://www.w3.org/2000/svg" xmlns:xlink="http://www.w3.org/1999/xlink" width="14" height="14" viewBox="0 0 14 14">
<path d="M6.994 0h-1l-5.994 1.5v10.562l7.991 1.937h1l4.994-2v-10.5l-6.991-1.5zM7.994 12.938l-1-0.237v-1.497l-4.997-1.203v1.519l-0.997-0.237v-8.534l6.994 1.553v8.637zM12.984 11.322l-1 0.4v-1.178l-1.997 0.787v1.191l-1 0.4v-8.422l3.997-1.541v8.362zM1.997 6l4.997 1.125v-2.016l-4.997-1.109zM1.997 9l4.997 1.187v-2.016l-4.997-1.172zM11.987 4.544l-2 0.787v2l2-0.787zM11.987 7.544l-2 0.787v2l2-0.787z"></path>
</svg>
