<?xml version="1.0" encoding="utf-8"?>
<!-- Generated by IcoMoon.io -->
<!DOCTYPE svg PUBLIC "-//W3C//DTD SVG 1.1//EN" "http://www.w3.org/Graphics/SVG/1.1/DTD/svg11.dtd">
<svg version="1.1" xmlns="http://www.w3.org/2000/svg" xmlns:xlink="http://www.w3.org/1999/xlink" width="13" height="14" viewBox="0 0 13 14">
<path d="M1.754 4c0.064 0 0.118 0.023 0.164 0.068s0.068 0.101 0.068 0.164v0.507c0 0.064-0.023 0.123-0.068 0.178s-0.101 0.082-0.164 0.082h-1.507c-0.073 0-0.137-0.027-0.192-0.082s-0.082-0.118-0.082-0.192v-0.493c0-0.073 0.027-0.13 0.082-0.171s0.118-0.062 0.192-0.062h1.507zM1.754 6.015c0.064 0 0.118 0.023 0.164 0.068s0.068 0.101 0.068 0.164v0.507c0 0.064-0.023 0.123-0.068 0.178s-0.101 0.082-0.164 0.082h-1.507c-0.073 0-0.137-0.027-0.192-0.082s-0.082-0.118-0.082-0.192v-0.493c0-0.073 0.027-0.13 0.082-0.171s0.118-0.062 0.192-0.062h1.507zM1.754 7.998c0.064 0 0.118 0.021 0.164 0.062s0.068 0.098 0.068 0.171v0.507c0 0.064-0.023 0.123-0.068 0.178s-0.101 0.082-0.164 0.082h-1.507c-0.073 0-0.137-0.027-0.192-0.082s-0.082-0.118-0.082-0.192v-0.493c0-0.073 0.027-0.13 0.082-0.171s0.118-0.062 0.192-0.062h1.507zM1.754 9.999c0.064 0 0.118 0.023 0.164 0.068s0.068 0.105 0.068 0.178v0.493c0 0.073-0.023 0.137-0.068 0.192s-0.101 0.082-0.164 0.082h-1.507c-0.073 0-0.137-0.027-0.192-0.082s-0.082-0.118-0.082-0.192v-0.493c0-0.073 0.027-0.132 0.082-0.178s0.118-0.068 0.192-0.068h1.507zM9.556 4.043c0.12 0 0.221 0.042 0.305 0.126s0.126 0.185 0.126 0.305v6.102c0 0.12-0.042 0.226-0.126 0.317s-0.185 0.137-0.305 0.137h-6.138c-0.128 0-0.232-0.040-0.311-0.12s-0.12-0.183-0.12-0.311v-6.090c0-0.128 0.040-0.237 0.12-0.329s0.183-0.137 0.311-0.137h6.138zM3.247 3c-0.073 0-0.137-0.023-0.192-0.068s-0.082-0.1-0.082-0.164h0.014v-1.507c0-0.073 0.025-0.137 0.075-0.192s0.112-0.082 0.185-0.082h0.507c0.064 0 0.118 0.027 0.164 0.082s0.068 0.119 0.068 0.192v1.507c0 0.064-0.023 0.119-0.068 0.164s-0.105 0.068-0.178 0.068h-0.493zM3.785 12.013c0.064 0 0.118 0.027 0.164 0.082s0.068 0.114 0.068 0.178v1.507c0 0.073-0.023 0.13-0.068 0.171s-0.105 0.062-0.178 0.062h-0.493c-0.073 0-0.137-0.021-0.192-0.062s-0.082-0.098-0.082-0.171h0.014v-1.507c0-0.064 0.025-0.123 0.075-0.178s0.112-0.082 0.185-0.082h0.507zM5.262 3c-0.073 0-0.137-0.023-0.192-0.068s-0.082-0.1-0.082-0.164v-1.507c0-0.073 0.027-0.137 0.082-0.192s0.118-0.082 0.192-0.082h0.493c0.073 0 0.132 0.027 0.178 0.082s0.068 0.119 0.068 0.192v1.507c0 0.064-0.023 0.119-0.068 0.164s-0.105 0.068-0.178 0.068h-0.493zM5.755 12.013c0.073 0 0.132 0.027 0.178 0.082s0.068 0.114 0.068 0.178v1.507c0 0.073-0.023 0.13-0.068 0.171s-0.105 0.062-0.178 0.062h-0.493c-0.073 0-0.137-0.021-0.192-0.062s-0.082-0.098-0.082-0.171v-1.507c0-0.064 0.027-0.123 0.082-0.178s0.118-0.082 0.192-0.082h0.493zM7.263 3c-0.064 0-0.123-0.023-0.178-0.068s-0.082-0.1-0.082-0.164v-1.507c0-0.073 0.027-0.137 0.082-0.192s0.118-0.082 0.192-0.082h0.493c0.073 0 0.13 0.027 0.171 0.082s0.062 0.119 0.062 0.192v1.507c0 0.064-0.021 0.119-0.062 0.164s-0.098 0.068-0.171 0.068h-0.507zM7.77 12.013c0.073 0 0.13 0.027 0.171 0.082s0.062 0.114 0.062 0.178v1.507c0 0.073-0.021 0.13-0.062 0.171s-0.098 0.062-0.171 0.062h-0.507c-0.064 0-0.123-0.021-0.178-0.062s-0.082-0.098-0.082-0.171v-1.507c0-0.064 0.027-0.123 0.082-0.178s0.118-0.082 0.192-0.082h0.493zM9.247 3c-0.064 0-0.123-0.023-0.178-0.068s-0.082-0.1-0.082-0.164v-1.507c0-0.073 0.027-0.137 0.082-0.192s0.118-0.082 0.192-0.082h0.493c0.073 0 0.13 0.027 0.171 0.082s0.062 0.119 0.062 0.192v1.507c0 0.064-0.021 0.119-0.062 0.164s-0.098 0.068-0.171 0.068h-0.507zM9.753 12.013c0.073 0 0.13 0.027 0.171 0.082s0.062 0.114 0.062 0.178v1.507c0 0.073-0.021 0.13-0.062 0.171s-0.098 0.062-0.171 0.062h-0.507c-0.064 0-0.123-0.021-0.178-0.062s-0.082-0.098-0.082-0.171v-1.507c0-0.064 0.027-0.123 0.082-0.178s0.118-0.082 0.192-0.082h0.493zM12.767 4c0.073 0 0.13 0.023 0.171 0.068s0.062 0.101 0.062 0.164v0.507c0 0.064-0.021 0.123-0.062 0.178s-0.098 0.082-0.171 0.082h-1.507c-0.064 0-0.126-0.027-0.185-0.082s-0.089-0.118-0.089-0.192v-0.493c0-0.073 0.029-0.13 0.089-0.171s0.121-0.062 0.185-0.062h1.507zM12.767 6.015c0.073 0 0.13 0.023 0.171 0.068s0.062 0.101 0.062 0.164v0.507c0 0.064-0.021 0.123-0.062 0.178s-0.098 0.082-0.171 0.082h-1.507c-0.064 0-0.126-0.027-0.185-0.082s-0.089-0.118-0.089-0.192v-0.493c0-0.073 0.029-0.13 0.089-0.171s0.121-0.062 0.185-0.062h1.507zM12.767 7.998c0.073 0 0.13 0.021 0.171 0.062s0.062 0.098 0.062 0.171v0.507c0 0.064-0.021 0.123-0.062 0.178s-0.098 0.082-0.171 0.082h-1.507c-0.064 0-0.126-0.027-0.185-0.082s-0.089-0.118-0.089-0.192v-0.493c0-0.073 0.029-0.13 0.089-0.171s0.121-0.062 0.185-0.062h1.507zM12.767 9.999c0.073 0 0.13 0.023 0.171 0.068s0.062 0.105 0.062 0.178v0.493c0 0.073-0.021 0.137-0.062 0.192s-0.098 0.082-0.171 0.082h-1.507c-0.064 0-0.126-0.027-0.185-0.082s-0.089-0.118-0.089-0.192v-0.493c0-0.073 0.029-0.132 0.089-0.178s0.121-0.068 0.185-0.068h1.507z"></path>
</svg>
