<?xml version="1.0" encoding="utf-8"?>
<!-- Generated by IcoMoon.io -->
<!DOCTYPE svg PUBLIC "-//W3C//DTD SVG 1.1//EN" "http://www.w3.org/Graphics/SVG/1.1/DTD/svg11.dtd">
<svg version="1.1" xmlns="http://www.w3.org/2000/svg" xmlns:xlink="http://www.w3.org/1999/xlink" width="14" height="14" viewBox="0 0 14 14">
<path d="M14 11.219v-5.542c-0.004-0.2-0.085-0.4-0.23-0.545s-0.341-0.221-0.541-0.226l-0.638-0c-0.204 0-0.404 0.081-0.549 0.226s-0.226 0.345-0.221 0.545l-0.004 2.492-4.538-4.538c-0.106-0.106-0.27-0.106-0.376 0l-1.904 1.904-3.399-3.399-1.569 1.569 4.78 4.78c0.106 0.106 0.27 0.106 0.376 0l1.826-1.826 3.17 3.152-2.499 0.004c-0.2-0.004-0.4 0.077-0.545 0.221s-0.226 0.345-0.221 0.545v0.638c0 0.204 0.077 0.4 0.221 0.545s0.345 0.226 0.549 0.226h5.542c0.194 0.004 0.384-0.076 0.527-0.213 0.055-0.031 0.097-0.080 0.117-0.141 0.081-0.124 0.126-0.268 0.126-0.417z"></path>
</svg>
