<?xml version="1.0" encoding="utf-8"?>
<!-- Generated by IcoMoon.io -->
<!DOCTYPE svg PUBLIC "-//W3C//DTD SVG 1.1//EN" "http://www.w3.org/Graphics/SVG/1.1/DTD/svg11.dtd">
<svg version="1.1" xmlns="http://www.w3.org/2000/svg" xmlns:xlink="http://www.w3.org/1999/xlink" width="11" height="14" viewBox="0 0 11 14">
<path d="M9.527 7.288c-0.329-0.423-0.975-0.798-1.533-0.798h-0v-4.493c0.557 0 0.989-0.459 0.972-0.994-0.016-0.512-0.407-1.003-0.941-1.003-0.013 0-5.063 0-5.063 0-0.302 0-0.557 0.137-0.768 0.347s-0.284 0.43-0.284 0.723c0 0.302 0.074 0.464 0.284 0.674s0.466 0.315 0.768 0.315v4.399c-0.558 0-1.058 0.277-1.502 0.83s-0.478 1.489-0.478 2.184c0 0.147 0.055 0.272 0.165 0.377s0.238 0.158 0.384 0.158h2.932l0.631 3.774c0.018 0.064 0.053 0.117 0.103 0.158s0.107 0.062 0.171 0.062h0.264c0.064 0 0.121-0.023 0.171-0.068s0.080-0.105 0.089-0.178l0.581-3.746h2.981c0.146 0 0.274-0.053 0.384-0.158s0.165-0.231 0.165-0.377c0-0.694-0.043-1.624-0.478-2.184z"></path>
</svg>
