<?xml version="1.0" encoding="utf-8"?>
<!-- Generated by IcoMoon.io -->
<!DOCTYPE svg PUBLIC "-//W3C//DTD SVG 1.1//EN" "http://www.w3.org/Graphics/SVG/1.1/DTD/svg11.dtd">
<svg version="1.1" xmlns="http://www.w3.org/2000/svg" xmlns:xlink="http://www.w3.org/1999/xlink" width="14" height="14" viewBox="0 0 14 14">
<path d="M13.481 11.006h-12.984c-0.134 0-0.25 0.047-0.35 0.147-0.097 0.097-0.147 0.216-0.147 0.35v1.997c0 0.137 0.050 0.253 0.15 0.35 0.097 0.097 0.216 0.147 0.35 0.147h12.988c0.134 0 0.25-0.047 0.35-0.147 0.097-0.097 0.147-0.216 0.147-0.35v-1.997c0-0.134-0.050-0.253-0.153-0.35-0.097-0.097-0.216-0.147-0.35-0.147zM12.984 13h-4.994v-1h4.994v1zM13.834 3.159c-0.097-0.097-0.216-0.147-0.35-0.147h-12.984c-0.134 0-0.25 0.050-0.35 0.15-0.097 0.097-0.147 0.216-0.147 0.35v1.997c0 0.134 0.047 0.25 0.147 0.35 0.097 0.097 0.216 0.147 0.35 0.147h12.988c0.134 0 0.25-0.047 0.35-0.147 0.097-0.097 0.147-0.216 0.147-0.35v-1.997c0-0.134-0.050-0.25-0.15-0.353zM12.984 5.013h-2.997v-1h2.997v1zM13.484 7.012h-12.984c-0.134 0-0.25 0.047-0.35 0.147-0.097 0.097-0.147 0.216-0.147 0.35v1.997c0 0.134 0.047 0.25 0.147 0.35 0.097 0.097 0.216 0.147 0.35 0.147h12.988c0.134 0 0.25-0.047 0.35-0.147 0.097-0.097 0.147-0.216 0.147-0.35v-1.997c0-0.137-0.050-0.253-0.15-0.35-0.097-0.097-0.216-0.147-0.35-0.147zM12.984 9.006h-7.991v-1h7.991v1zM0.459 2.509h13.072c0.463 0 0.563-0.409 0.338-0.634s-1.359-1.391-1.563-1.594-0.438-0.281-0.656-0.281c-0.091 0-1.731 0-3.628 0-0.678 0-1.384 0-2.059 0-1.897 0-3.538 0-3.628 0-0.219 0-0.453 0.078-0.656 0.281s-1.338 1.369-1.563 1.594-0.125 0.634 0.344 0.634z"></path>
</svg>
