<?xml version="1.0" encoding="utf-8"?>
<!-- Generated by IcoMoon.io -->
<!DOCTYPE svg PUBLIC "-//W3C//DTD SVG 1.1//EN" "http://www.w3.org/Graphics/SVG/1.1/DTD/svg11.dtd">
<svg version="1.1" xmlns="http://www.w3.org/2000/svg" xmlns:xlink="http://www.w3.org/1999/xlink" width="14" height="14" viewBox="0 0 14 14">
<path d="M13.189 5.494h-1.167v-3.674c-0.022-0.643-0.222-0.82-0.693-0.82h-10.444c-0.77 0-0.885 0.073-0.885 0.82v6.988c0 0.973 0 1.192 0.885 1.212h1.101v1.976c0 0.326 0.188 0.49 0.423 0.49 1.916 0 2.875-0.979 3.591-2.47h1v1.099c0.004 0.886 0.004 0.886 0.85 0.883h2.174c0.758 1.283 2.73 2.002 2.73 2.002 0.156 0 0.268-0.143 0.268-0.299v-1.703h0.167c0.811 0.002 0.811 0.002 0.818-0.883v-4.814c-0.007-0.8-0.007-0.8-0.818-0.806zM5.042 8.016c-0.156 2.786-2.042 3.005-2.042 3.005v-3.008h-1.513v-5.513h9.013v5.516h-5.458z"></path>
</svg>
