<?xml version="1.0" encoding="utf-8"?>
<!-- Generated by IcoMoon.io -->
<!DOCTYPE svg PUBLIC "-//W3C//DTD SVG 1.1//EN" "http://www.w3.org/Graphics/SVG/1.1/DTD/svg11.dtd">
<svg version="1.1" xmlns="http://www.w3.org/2000/svg" xmlns:xlink="http://www.w3.org/1999/xlink" width="16" height="14" viewBox="0 0 16 14">
<path d="M14 1.006h-12v3h12v-3zM12.978 3h-2.994v-1h2.994v1zM14.772 9.225c-0.147-0.147-0.322-0.219-0.531-0.219h-0.75v-1.997c0-0.272-0.1-0.503-0.297-0.703-0.197-0.197-0.431-0.297-0.703-0.297h-3.991v-1.509h-1v1.513h-3.997c-0.272 0-0.503 0.1-0.703 0.297-0.197 0.197-0.297 0.431-0.297 0.703v1.997h-0.75c-0.209 0-0.384 0.072-0.531 0.219s-0.219 0.322-0.219 0.531v2.497c0 0.209 0.072 0.384 0.219 0.531s0.322 0.219 0.531 0.219h2.497c0.209 0 0.384-0.072 0.531-0.219s0.219-0.322 0.219-0.531v-2.497c0-0.209-0.072-0.384-0.219-0.531s-0.322-0.219-0.531-0.219h-0.75v-1.997h4v1.997h-0.75c-0.209 0-0.384 0.072-0.531 0.219s-0.219 0.322-0.219 0.531v2.497c0 0.209 0.072 0.384 0.219 0.531s0.322 0.219 0.531 0.219h2.497c0.209 0 0.384-0.072 0.531-0.219s0.219-0.322 0.219-0.531v-2.497c0-0.209-0.072-0.384-0.219-0.531s-0.322-0.219-0.531-0.219h-0.75v-1.997h3.997v1.997h-0.75c-0.209 0-0.384 0.072-0.531 0.219s-0.219 0.322-0.219 0.531v2.497c0 0.209 0.072 0.384 0.219 0.531s0.322 0.219 0.531 0.219h2.497c0.209 0 0.384-0.072 0.531-0.219s0.219-0.322 0.219-0.531v-2.497c0-0.209-0.072-0.388-0.219-0.534z"></path>
</svg>
