<?xml version="1.0" encoding="utf-8"?>
<!-- Generated by IcoMoon.io -->
<!DOCTYPE svg PUBLIC "-//W3C//DTD SVG 1.1//EN" "http://www.w3.org/Graphics/SVG/1.1/DTD/svg11.dtd">
<svg version="1.1" xmlns="http://www.w3.org/2000/svg" xmlns:xlink="http://www.w3.org/1999/xlink" width="16" height="14" viewBox="0 0 16 14">
<path d="M1 0h-1v1c0 0.062 0 0.103 0 0.103h1v-1.103zM0 2.041h1v1.875h-1v-1.875zM0 7.666v0.341h1c0.294 0 0.534 0 0.534 0v-1h-1.534v0.659zM0 4.853h1v1.875h-1v-1.875zM7.334 0h1.875v1h-1.875v-1zM4.522 0h1.875v1h-1.875v-1zM10.147 0h1.875v1h-1.875v-1zM1.709 0h1.875v1h-1.875v-1zM10.909 7.006h1.112v1h-1.112v-1zM11.022 4.431h1v1.875h-1v-1.875zM5.284 7.006h1.875v1h-1.875v-1zM8.097 7.006h1.875v1h-1.875v-1zM13.866 2h-1.844v-0.381h-1v0.381h-9.019v2.488h-0.003v6.531h0.003v0.984h6v0.997h-3.006v1h8.009v-0.997h-3.006v-0.997l6-0.003v-10.003h-2.134zM14.003 9.994h-9.994v-1.987h0.338v-1h-0.338v-2.519h-0.009v-0.481h10.003v5.988z"></path>
</svg>
