<?xml version="1.0" encoding="utf-8"?>
<!-- Generated by IcoMoon.io -->
<!DOCTYPE svg PUBLIC "-//W3C//DTD SVG 1.1//EN" "http://www.w3.org/Graphics/SVG/1.1/DTD/svg11.dtd">
<svg version="1.1" xmlns="http://www.w3.org/2000/svg" xmlns:xlink="http://www.w3.org/1999/xlink" width="14" height="14" viewBox="0 0 14 14">
<path d="M11.5 3h2.5v10h-2.5v-10zM9.503 3h-9.003c-0.134 0-0.253 0.050-0.35 0.147-0.1 0.103-0.15 0.219-0.15 0.353v10.003c0 0.134 0.050 0.253 0.147 0.35 0.1 0.1 0.216 0.147 0.35 0.147h9.006c0.134 0 0.253-0.050 0.35-0.147 0.1-0.1 0.147-0.216 0.147-0.35v-10.003c0-0.134-0.050-0.253-0.147-0.35-0.1-0.1-0.216-0.15-0.35-0.15zM9 12h-6v-1.5h6v1.5zM9 9h-8v-1.5h8v1.5zM9 6h-3v-1.5h3v1.5zM0.306 2.5h9.388c0.156 0 0.256-0.041 0.291-0.119 0.038-0.078-0.003-0.175-0.119-0.291 0 0-1.947-1.784-2.091-1.953s-0.328-0.134-0.328-0.134h-4.938c0 0-0.163-0.019-0.309 0.141-0.144 0.163-2.069 1.947-2.069 1.947-0.116 0.116-0.156 0.209-0.119 0.291s0.134 0.119 0.294 0.119zM10.491-0.006h-1.656l2.663 2.491 2.503 0.022z"></path>
</svg>
