<?xml version="1.0" encoding="utf-8"?>
<!-- Generated by IcoMoon.io -->
<!DOCTYPE svg PUBLIC "-//W3C//DTD SVG 1.1//EN" "http://www.w3.org/Graphics/SVG/1.1/DTD/svg11.dtd">
<svg version="1.1" xmlns="http://www.w3.org/2000/svg" xmlns:xlink="http://www.w3.org/1999/xlink" width="14" height="14" viewBox="0 0 14 14">
<path d="M2.531 14l0.009-1.5h1.469l0.031-1.5 1.959 0.009 1.922-2.334c2.306 0.869 4.881-0.3 5.75-2.606 0.509-1.353 0.331-2.869-0.475-4.066 0 0-0.803-1.134-1.513-1.4-2.15-1.209-4.872-0.447-6.081 1.7-0.659 1.172-0.756 2.575-0.266 3.825l-5.297 5.206-0.009 2.644 2.5 0.022zM12.122 2.959c-0.019 0.762-0.647 1.369-1.409 1.362l0.012 0.012c-0.772 0-1.4-0.625-1.4-1.4s0.625-1.4 1.4-1.4c0.772 0 1.4 0.625 1.4 1.4v0l-0.003 0.025z"></path>
</svg>
