<?xml version="1.0" encoding="utf-8"?>
<!-- Generated by IcoMoon.io -->
<!DOCTYPE svg PUBLIC "-//W3C//DTD SVG 1.1//EN" "http://www.w3.org/Graphics/SVG/1.1/DTD/svg11.dtd">
<svg version="1.1" xmlns="http://www.w3.org/2000/svg" xmlns:xlink="http://www.w3.org/1999/xlink" width="14" height="14" viewBox="0 0 14 14">
<path d="M0.022 10.919v-2.469c0-0.15 0.044-0.288 0.128-0.416s0.197-0.222 0.338-0.284l2.522-1.103v-2.375c0-0.15 0.044-0.288 0.128-0.416s0.197-0.222 0.338-0.284l2.741-1.141c0.091-0.041 0.191-0.059 0.297-0.059s0.206 0.019 0.297 0.059l2.709 1.141c0.141 0.062 0.253 0.159 0.338 0.284 0.084 0.128 0.128 0.266 0.128 0.416v2.375l2.544 1.103c0.144 0.062 0.256 0.159 0.341 0.284 0.084 0.128 0.125 0.266 0.125 0.416v2.469c0 0.144-0.038 0.275-0.113 0.397s-0.178 0.216-0.309 0.278l-2.666 1.328c-0.1 0.056-0.213 0.084-0.341 0.084s-0.241-0.028-0.341-0.084l-2.669-1.328c-0.019-0.009-0.034-0.016-0.041-0.025-0.009 0.009-0.022 0.016-0.041 0.025l-2.675 1.328c-0.1 0.056-0.213 0.084-0.341 0.084s-0.241-0.028-0.341-0.084l-2.675-1.328c-0.131-0.062-0.234-0.156-0.309-0.278s-0.113-0.256-0.113-0.397zM1.047 8.334l2.412 1.028 2.412-1.028-2.412-1.028-2.412 1.028zM3.841 12.056l2.291-1.141v-1.863l-2.291 0.972c0 0.003 0 2.031 0 2.031zM3.884 4.253l2.631 1.122 2.631-1.122-2.631-1.122-2.631 1.122zM6.897 7.625l2.291-0.978v-1.578l-2.291 0.972v1.584zM7.159 8.334l2.412 1.028 2.412-1.028-2.412-1.028-2.412 1.028zM9.953 12.056l2.291-1.141v-1.863l-2.291 0.972v2.031zM15.866 6.481c-0.081-0.122-0.191-0.216-0.331-0.278l-2.544-1.072v-2.303c0-0.147-0.041-0.281-0.125-0.403s-0.194-0.216-0.328-0.278l-2.566-1.106c-0.087-0.038-0.184-0.056-0.291-0.056-0.103 0-0.2 0.019-0.291 0.056l-1.628 0.703c0.091-0.038 0.187-0.059 0.291-0.059 0.106 0 0.203 0.019 0.291 0.059l2.756 1.181c0.137 0.062 0.247 0.156 0.331 0.278 0.084 0.125 0.125 0.259 0.125 0.406v2.322l2.531 1.078c0.141 0.062 0.25 0.156 0.331 0.278 0.081 0.125 0.122 0.259 0.122 0.406v2.416c0 0.141-0.038 0.269-0.109 0.388-0.016 0.025-0.034 0.050-0.053 0.075l1.191-0.634c0.128-0.062 0.228-0.153 0.3-0.272s0.109-0.247 0.109-0.388v-2.397c0.009-0.144-0.031-0.278-0.113-0.4z"></path>
</svg>
