<?xml version="1.0" encoding="utf-8"?>
<!-- Generated by IcoMoon.io -->
<!DOCTYPE svg PUBLIC "-//W3C//DTD SVG 1.1//EN" "http://www.w3.org/Graphics/SVG/1.1/DTD/svg11.dtd">
<svg version="1.1" xmlns="http://www.w3.org/2000/svg" xmlns:xlink="http://www.w3.org/1999/xlink" width="14" height="14" viewBox="0 0 14 14">
<path d="M3 1h8v2h-8v-2zM13.125 4h-12.25c-0.481 0-0.875 0.394-0.875 0.875v4.25c0 0.481 0.394 0.875 0.875 0.875h2.125v3h8v-3h2.125c0.481 0 0.875-0.394 0.875-0.875v-4.25c0-0.481-0.394-0.875-0.875-0.875zM10 12h-6v-4h6v4zM13.124 5.48c0 0.35-0.284 0.634-0.634 0.634s-0.634-0.284-0.634-0.634 0.284-0.634 0.634-0.634c0.35 0 0.634 0.284 0.634 0.634z"></path>
</svg>
