<?xml version="1.0" encoding="utf-8"?>
<!-- Generated by IcoMoon.io -->
<!DOCTYPE svg PUBLIC "-//W3C//DTD SVG 1.1//EN" "http://www.w3.org/Graphics/SVG/1.1/DTD/svg11.dtd">
<svg version="1.1" xmlns="http://www.w3.org/2000/svg" xmlns:xlink="http://www.w3.org/1999/xlink" width="16" height="14" viewBox="0 0 16 14">
<path d="M10.375 7c0.344 0 0.625 0.528 0.625 0.528l0.312 0.472h0.688v-2.5c0 0-0.003-0.5-0.503-0.5-0.572 0-4 0-4 0l-0.353-0.556c0 0-0.206-0.444-0.644-0.444-0.5 0-1.663 0-2 0-0.5 0-0.5 0.5-0.5 0.5v5.5h2v-2c0-0.781 0.219-1 1.031-1 0 0 3 0 3.344 0zM7.372 3c0.344 0 0.625 0.528 0.625 0.528l0.312 0.472h0.688v-2.5c0 0-0.003-0.5-0.503-0.5-0.572 0-4 0-4 0l-0.353-0.556c0 0-0.206-0.444-0.644-0.444-0.497 0-1.659 0-1.997 0-0.5 0-0.5 0.5-0.5 0.5v5.5h1.997v-2c0-0.781 0.219-1 1.031-1 0 0 3 0 3.344 0zM14.497 9c-0.572 0-4 0-4 0l-0.353-0.556c0 0-0.206-0.444-0.644-0.444-0.5 0-1.663 0-2 0-0.5 0-0.5 0.5-0.5 0.5v5.5h8v-4.5c0 0-0.003-0.5-0.503-0.5z"></path>
</svg>
