<?xml version="1.0" encoding="utf-8"?>
<!-- Generated by IcoMoon.io -->
<!DOCTYPE svg PUBLIC "-//W3C//DTD SVG 1.1//EN" "http://www.w3.org/Graphics/SVG/1.1/DTD/svg11.dtd">
<svg version="1.1" xmlns="http://www.w3.org/2000/svg" xmlns:xlink="http://www.w3.org/1999/xlink" width="14" height="14" viewBox="0 0 14 14">
<path d="M7 3c-2.206 0-4 1.794-4 4s1.794 4 4 4 4-1.794 4-4-1.794-4-4-4zM12.531 11.284c0.675-0.869 1.15-1.9 1.353-3.025 0.025-0.134-0.078-0.259-0.216-0.259h-1.084c-0.103 0-0.191 0.072-0.213 0.172-0.456 2.097-2.116 3.75-4.212 4.203-0.1 0.022-0.175 0.109-0.175 0.213v1.088c0 0.137 0.125 0.241 0.259 0.216 1.125-0.2 2.156-0.675 3.025-1.344 0.087-0.069 0.209-0.059 0.288 0.019l1.372 1.372c0.041 0.041 0.097 0.066 0.153 0.066h0.7c0.122 0 0.219-0.097 0.219-0.219v-0.669c0-0.059-0.022-0.113-0.066-0.153l-1.384-1.384c-0.078-0.084-0.084-0.206-0.019-0.294zM5.725 0.119c-1.116 0.206-2.144 0.678-3.006 1.353-0.087 0.069-0.213 0.059-0.291-0.019l-1.384-1.388c-0.044-0.044-0.097-0.066-0.156-0.066h-0.669c-0.122 0-0.219 0.097-0.219 0.219v0.669c0 0.059 0.022 0.113 0.066 0.153l1.384 1.384c0.078 0.078 0.084 0.203 0.019 0.291-0.675 0.869-1.15 1.9-1.353 3.025-0.025 0.134 0.078 0.259 0.216 0.259h1.084c0.103 0 0.191-0.072 0.213-0.172 0.453-2.088 2.097-3.734 4.184-4.197 0.1-0.022 0.172-0.109 0.172-0.213v-1.084c0-0.137-0.125-0.241-0.259-0.216zM12.584 6h1.084c0.137 0 0.241-0.125 0.216-0.259-0.203-1.116-0.675-2.141-1.341-3.009-0.069-0.088-0.059-0.209 0.019-0.288l1.372-1.369c0.041-0.041 0.066-0.097 0.066-0.156v-0.7c0-0.122-0.097-0.219-0.219-0.219h-0.669c-0.059 0-0.113 0.022-0.153 0.066l-1.384 1.384c-0.078 0.078-0.203 0.084-0.291 0.019-0.869-0.675-1.9-1.15-3.025-1.353-0.134-0.025-0.259 0.078-0.259 0.216v1.084c0 0.103 0.072 0.191 0.172 0.213 2.091 0.456 3.741 2.106 4.2 4.2 0.022 0.1 0.109 0.172 0.213 0.172zM1.416 8h-1.088c-0.137 0-0.241 0.125-0.216 0.259 0.203 1.125 0.678 2.156 1.353 3.025 0.069 0.088 0.059 0.213-0.019 0.291l-1.381 1.381c-0.044 0.044-0.066 0.097-0.066 0.156v0.669c0 0.122 0.097 0.219 0.219 0.219h0.669c0.059 0 0.113-0.022 0.153-0.066l1.384-1.384c0.078-0.078 0.203-0.084 0.288-0.019 0.869 0.675 1.9 1.15 3.025 1.353 0.134 0.025 0.259-0.078 0.259-0.216v-1.084c0-0.103-0.072-0.191-0.172-0.213-2.091-0.456-3.741-2.106-4.2-4.2-0.019-0.1-0.106-0.172-0.209-0.172z"></path>
</svg>
