<?xml version="1.0" encoding="utf-8"?>
<!-- Generated by IcoMoon.io -->
<!DOCTYPE svg PUBLIC "-//W3C//DTD SVG 1.1//EN" "http://www.w3.org/Graphics/SVG/1.1/DTD/svg11.dtd">
<svg version="1.1" xmlns="http://www.w3.org/2000/svg" xmlns:xlink="http://www.w3.org/1999/xlink" width="14" height="14" viewBox="0 0 14 14">
<path d="M13.828 2.616c-0.128-0.184-0.3-0.316-0.513-0.397l-5.909-2.15c-0.125-0.047-0.247-0.069-0.372-0.069-0.006 0-0.012 0-0.019 0s-0.012 0-0.019 0c-0.122 0-0.247 0.022-0.369 0.069l-5.909 2.153c-0.213 0.078-0.384 0.209-0.513 0.397-0.128 0.184-0.194 0.391-0.194 0.616v6.463c0 0.197 0.050 0.378 0.15 0.547s0.237 0.3 0.412 0.397l5.912 3.231c0.156 0.091 0.328 0.134 0.513 0.134 0.006 0 0.012 0 0.019 0s0.012 0 0.019 0c0.184 0 0.356-0.044 0.513-0.134l5.912-3.231c0.175-0.094 0.309-0.228 0.412-0.397s0.15-0.35 0.15-0.547v-6.466c-0.003-0.225-0.069-0.428-0.197-0.616zM0.991 9.091v-1.012l6.025 2.875 5.997-2.875v1.012l-5.997 3.259-6.025-3.259zM7.016 8.894l-6.025-2.684v-1.128l6.025 2.475 5.997-2.512v1.163l-5.997 2.687z"></path>
</svg>
