<?xml version="1.0" encoding="utf-8"?>
<!-- Generated by IcoMoon.io -->
<!DOCTYPE svg PUBLIC "-//W3C//DTD SVG 1.1//EN" "http://www.w3.org/Graphics/SVG/1.1/DTD/svg11.dtd">
<svg version="1.1" xmlns="http://www.w3.org/2000/svg" xmlns:xlink="http://www.w3.org/1999/xlink" width="14" height="14" viewBox="0 0 14 14">
<path d="M2.191 2.984h-1.831c-0.184 0-0.359 0.128-0.359 0.312v0.669c0 0.184 0.175 0.356 0.359 0.356l1.831 0.003c0.184 0 0.309-0.172 0.309-0.356v-0.669c0-0.181-0.125-0.316-0.309-0.316zM2.191 5.212h-1.831c-0.184 0-0.359 0.128-0.359 0.312v0.669c0 0.184 0.175 0.356 0.359 0.356l1.831 0.003c0.184 0 0.309-0.172 0.309-0.356v-0.669c0-0.184-0.125-0.316-0.309-0.316zM2.191 7.438h-1.831c-0.184 0-0.359 0.128-0.359 0.312v0.669c0 0.184 0.175 0.356 0.359 0.356l1.831 0.003c0.184 0 0.309-0.172 0.309-0.356v-0.669c0-0.181-0.125-0.316-0.309-0.316zM2.191 9.663h-1.831c-0.184 0-0.359 0.128-0.359 0.312v0.669c0 0.184 0.175 0.356 0.359 0.356l1.831 0.003c0.184 0 0.309-0.172 0.309-0.356v-0.669c0-0.181-0.125-0.316-0.309-0.316zM13.691 2.984h-1.831c-0.184 0-0.359 0.128-0.359 0.312v0.669c0 0.184 0.175 0.356 0.359 0.356l1.831 0.003c0.184 0 0.309-0.172 0.309-0.356v-0.669c0-0.181-0.125-0.316-0.309-0.316zM13.691 5.212h-1.831c-0.184 0-0.359 0.128-0.359 0.312v0.669c0 0.184 0.175 0.356 0.359 0.356l1.831 0.003c0.184 0 0.309-0.172 0.309-0.356v-0.669c0-0.184-0.125-0.316-0.309-0.316zM13.691 7.438h-1.831c-0.184 0-0.359 0.128-0.359 0.312v0.669c0 0.184 0.175 0.356 0.359 0.356l1.831 0.003c0.184 0 0.309-0.172 0.309-0.356v-0.669c0-0.181-0.125-0.316-0.309-0.316zM13.691 9.663h-1.831c-0.184 0-0.359 0.128-0.359 0.312v0.669c0 0.184 0.175 0.356 0.359 0.356l1.831 0.003c0.184 0 0.309-0.172 0.309-0.356v-0.669c0-0.181-0.125-0.316-0.309-0.316zM10.509 1.006h-0.509v-0.738c0-0.137-0.097-0.269-0.234-0.269h-0.5c-0.137 0-0.266 0.131-0.266 0.269v0.738h-0.669v-0.738c0-0.137-0.097-0.269-0.234-0.269h-0.5c-0.137 0-0.266 0.131-0.266 0.269v0.738h-0.666v-0.738c0-0.137-0.097-0.269-0.234-0.269h-0.5c-0.137 0-0.266 0.131-0.266 0.269v0.738h-0.666v-0.738c0-0.137-0.097-0.269-0.234-0.269h-0.5c-0.137 0-0.266 0.131-0.266 0.269v0.738h-0.506c-0.281 0-0.491 0.244-0.491 0.525v10.975c0 0.281 0.209 0.494 0.491 0.494h0.506v0.769h-0.003c0 0.137 0.128 0.231 0.266 0.231h0.5c0.137 0 0.237-0.094 0.237-0.231v-0.769h0.666v0.769h-0.003c0 0.137 0.128 0.231 0.266 0.231h0.5c0.137 0 0.237-0.094 0.237-0.231v-0.769h0.666v0.769h-0.003c0 0.137 0.128 0.231 0.266 0.231h0.5c0.137 0 0.237-0.094 0.237-0.231v-0.769h0.669v0.769h-0.003c0 0.137 0.128 0.231 0.266 0.231h0.5c0.137 0 0.237-0.094 0.237-0.231v-0.769h0.513c0.281 0 0.491-0.244 0.491-0.525v-10.975c-0.003-0.281-0.213-0.494-0.494-0.494z"></path>
</svg>
