<?xml version="1.0" encoding="utf-8"?>
<!-- Generator: Adobe Illustrator 20.1.0, SVG Export Plug-In . SVG Version: 6.00 Build 0)  -->
<svg version="1.1" id="Layer_1" xmlns="http://www.w3.org/2000/svg" xmlns:xlink="http://www.w3.org/1999/xlink" x="0px" y="0px"
	 viewBox="0 0 448 448" style="enable-background:new 0 0 448 448;" xml:space="preserve">
<path d="M438.2,276.9L391.5,224l46.7-52.9c1.9-2.4,3.3-5.1,4.1-8.1c3.1-11.5-3.8-23.4-15.3-26.5l-65.9-13.2l10.4-68.9
	c0.2-3.1-0.3-6.1-1.4-9c-4.3-11.1-16.8-16.7-28-12.4l-69.8,37.7L242.2,9.9c-1.7-2.6-3.8-4.8-6.4-6.4c-10-6.5-23.4-3.6-29.9,6.4
	l-31.2,60.9l-68.8-37.7c-2.8-1.1-5.9-1.6-8.9-1.4c-12,0.6-21.1,10.8-20.5,22.7l10.4,68.9L21,136.6c-3,0.8-5.7,2.2-8.1,4.1
	c-9.3,7.5-10.7,21.1-3.2,30.4L56.5,224L9.8,276.9c-1.9,2.4-3.3,5.1-4.1,8.1c-3.1,11.5,3.8,23.4,15.4,26.4L89,322.6l-12.4,70.9
	c-0.2,3.1,0.3,6.1,1.4,9c4.3,11.1,16.8,16.7,28,12.4l68.8-37.7l31.2,60.9c1.7,2.6,3.8,4.8,6.4,6.4c10,6.5,23.4,3.6,29.9-6.4
	l31.2-60.9l68.8,37.7c2.8,1.1,5.9,1.6,9,1.4c11.9-0.6,21.1-10.8,20.4-22.8l-12.4-70.9l67.9-11.2c3-0.8,5.7-2.2,8.1-4.1
	C444.4,299.8,445.8,286.2,438.2,276.9z M319.8,247.9c0,1-0.1,2.1-0.4,3.1c-0.4,1-1,1.9-1.8,2.6c-0.6,0.9-1.4,1.5-2.4,1.8
	c-1.1,0.3-2.2,0.4-3.3,0.4h-56v56c0,1.1-0.1,2.2-0.4,3.3c-0.3,1-0.9,1.8-1.8,2.4c-0.8,0.8-1.6,1.5-2.6,2s-2,0.7-3.1,0.7h-48.1
	c-1.1,0-2.1-0.2-3.1-0.7s-1.9-1.2-2.6-2c-0.9-0.6-1.5-1.4-1.8-2.4c-0.3-1.1-0.4-2.2-0.4-3.3v-56h-56c-1.1,0-2.2-0.1-3.3-0.4
	c-1-0.3-1.8-0.9-2.4-1.8c-0.8-0.7-1.4-1.6-1.8-2.6c-0.3-1-0.5-2-0.4-3.1v-47.7c0-1.1,0.1-2.2,0.4-3.3c0.3-1.1,0.9-2.1,1.8-2.8
	c0.7-0.7,1.5-1.2,2.4-1.5c1-0.4,2.2-0.7,3.3-0.7h56v-56c0-1.1,0.1-2.2,0.4-3.3c0.3-1,0.9-1.8,1.8-2.4c0.7-0.8,1.6-1.4,2.6-1.8
	c1-0.3,2-0.5,3.1-0.4H248c1,0,2.1,0.1,3.1,0.4c1,0.4,1.9,1,2.6,1.8c0.9,0.6,1.5,1.4,1.8,2.4c0.3,1.1,0.4,2.2,0.4,3.3v56h56
	c1.1,0,2.2,0.2,3.3,0.7l0,0c0.9,0.3,1.7,0.9,2.5,1.5c0.8,0.8,1.4,1.8,1.8,2.8c0.3,1.1,0.4,2.2,0.4,3.3v47.7H319.8z"/>
</svg>
