<?xml version="1.0" encoding="utf-8"?>
<!-- Generated by IcoMoon.io -->
<!DOCTYPE svg PUBLIC "-//W3C//DTD SVG 1.1//EN" "http://www.w3.org/Graphics/SVG/1.1/DTD/svg11.dtd">
<svg version="1.1" xmlns="http://www.w3.org/2000/svg" xmlns:xlink="http://www.w3.org/1999/xlink" width="14" height="14" viewBox="0 0 14 14">
<path d="M2.051 2.051c1.267-1.267 3.016-2.051 4.949-2.051 3.866 0 7 3.134 7 7s-3.134 7-7 7c-2.101 0-3.985-0.925-5.268-2.391l1.317-1.152c0.076 0.087 0.156 0.172 0.239 0.255 0.992 0.992 2.31 1.538 3.712 1.538s2.721-0.546 3.712-1.538c0.992-0.992 1.538-2.31 1.538-3.712s-0.546-2.721-1.538-3.712c-0.992-0.992-2.31-1.538-3.712-1.538s-2.721 0.546-3.712 1.538l-2.116 0.837 0.879-2.074zM4.437 8c-0.128 0-0.232-0.041-0.314-0.123s-0.123-0.187-0.123-0.314v-0.125c0-0.128 0.041-0.232 0.123-0.314s0.187-0.123 0.314-0.123h2.563v-3.562c0-0.128 0.041-0.232 0.123-0.314s0.187-0.123 0.314-0.123h0.125c0.128 0 0.232 0.041 0.314 0.123s0.123 0.187 0.123 0.314v4.125c0 0.128-0.041 0.232-0.123 0.314s-0.187 0.123-0.314 0.123h-3.125zM4.67 4.42c0.319 0.319 0.211 0.58-0.24 0.58h-3.609c-0.706 0-0.82-0.123-0.82-0.82v-3.609c0-0.451 0.261-0.559 0.58-0.24l4.090 4.090z"></path>
</svg>
