<?xml version="1.0" encoding="utf-8"?>
<!-- Generator: Adobe Illustrator 20.1.0, SVG Export Plug-In . SVG Version: 6.00 Build 0)  -->
<svg version="1.1" id="Layer_1" xmlns="http://www.w3.org/2000/svg" xmlns:xlink="http://www.w3.org/1999/xlink" x="0px" y="0px"
	 viewBox="0 0 449 448" style="enable-background:new 0 0 449 448;" xml:space="preserve">
<path d="M82,298.8l-66.1,69.8l80.7,80.1l33.4-32h184.5C329,416,348.8,391,348.8,391l79.2-83l-48.9-45.7L289,352l-112,0.3
	c-16,0-15.5-15.3-15.5-15.3c0-16,15.6-16,15.6-16h95.3c6.7,0,7.3-0.3,12-5s4.6-11.3,4.6-18v13c0-6.7,0.1-13.3-4.6-18s-5.3-6-12-6
	H109.1C100.2,286.8,91,291.5,82,298.8L82,298.8L82,298.8z"/>
<path d="M379.1,262.3c0,0,21.9-11,42,10.1c0,0,15.9,15.6,7.9,34.6l-19.1,20l-30.8-41.7V262.3z"/>
<path d="M379.3,104.8l-42.8-3.5c-1.8-5.6-0.9-4-3.5-9.5c5.6-7.8,20.6-23.2,26.4-31c0.8-1.2,1.4-2.4,1.4-3.8
	c0-5.6-23.7-27.3-28.9-32.1c-1.2-1-2.6-1.6-4.2-1.6c-1.4,0-2.8,0.4-4,1.4l-29.8,26c-4.8-2.4-5.5-2.4-10.8-4l-2.7-41.1
	c-0.4-2.8-3.2-5-6-5h-37.3c-2.8,0-5.2,2-6,4.8c-2.6,9.8-1.3,31.5-2.3,41.6c-5.4,1.8-4.9,2.2-10,4.8l-30.9-27.1
	c-1.2-0.8-2.6-1.4-4.2-1.4c-5.8,0-28.3,24.3-32.3,29.7c-1,1.2-1.4,2.6-1.4,4s0.6,2.8,1.4,4c6.4,7.6,20.3,20.6,25.9,28.6
	c-2.6,5-2.2,7.3-3.8,12.6l-41.6,2c-2.6,0.4-4.6,3.4-4.6,6v37.1c0,2.8,2,5.4,4.8,5.8l42,2.7c1.8,5.6,1.4,3.8,4.2,9.3
	c-5.8,7.8-20.5,24.5-26.3,32.1c-0.8,1.2-1.4,2.4-1.4,3.8c0,5.8,23.7,27.3,28.9,32.1c1.2,1,2.6,1.6,4.2,1.6c1.4,0,3-0.4,4-1.4
	l29.6-27.6c4.8,2.4,5.2,2.2,10.5,3.8l3.3,42.8c0.4,2.8,3.2,5,6,5h37.3c2.8,0,5.2-2,6-4.8c2.6-9.8,0.7-32.7,1.7-43
	c5.4-1.6,4.9-1.9,10-4.5l31.5,28.2c1.2,0.8,2.6,1.4,4.2,1.4c5.8,0,28.3-24.5,32.3-29.9c1-1,1.4-2.4,1.4-3.8c0-1.6-0.6-2.8-1.4-4
	c-6.4-7.6-23.2-21.8-28.8-29.8c2.6-5,2.1-4.9,3.7-10.2l44.6-3.3c2.6-0.4,4.6-3.4,4.6-6v-37.1C384.1,108,382.1,105.4,379.3,104.8
	L379.3,104.8L379.3,104.8L379.3,104.8L379.3,104.8z M255,179.6c-27.6,0-50.2-22.5-50.2-50.2s22.5-50.2,50.2-50.2
	s50.2,22.5,50.2,50.2S282.7,179.6,255,179.6L255,179.6z"/>
<path d="M79.8,32c-26.5,0-48,21.5-48,48s21.5,48,48,48s48-21.5,48-48S106.3,32,79.8,32z M79.8,98.2c-10.1,0-18.2-8.2-18.2-18.2
	s8.2-18.2,18.2-18.2S98,69.9,98,80S89.8,98.2,79.8,98.2z"/>
<path d="M96,159c-17.7,0-32,14.3-32,32s14.3,32,32,32s32-14.3,32-32S113.7,159,96,159z M96,201.6c-5.9,0-10.6-4.8-10.6-10.6
	s4.8-10.6,10.6-10.6s10.6,4.8,10.6,10.6S101.9,201.6,96,201.6z"/>
</svg>
