<?xml version="1.0" encoding="utf-8"?>
<!-- Generated by IcoMoon.io -->
<!DOCTYPE svg PUBLIC "-//W3C//DTD SVG 1.1//EN" "http://www.w3.org/Graphics/SVG/1.1/DTD/svg11.dtd">
<svg version="1.1" xmlns="http://www.w3.org/2000/svg" xmlns:xlink="http://www.w3.org/1999/xlink" width="14" height="14" viewBox="0 0 14 14">
<path d="M18 4.503l-3-2.509v2.006h-1.797c-0.003-0.003-0.003-0.009-0.006-0.012-0.537-0.919-1.266-1.647-2.184-2.184-0.919-0.534-1.922-0.803-3.013-0.803s-2.094 0.269-3.013 0.806c-0.919 0.537-1.647 1.266-2.184 2.184-0.534 0.919-0.803 1.922-0.803 3.009 0 0.341 0.025 0.672 0.078 0.994h-2.081l0.003 1.003h2.334c0.122 0.35 0.281 0.688 0.472 1.016 0.537 0.919 1.266 1.647 2.184 2.184s1.922 0.803 3.013 0.803c1.091 0 2.094-0.269 3.013-0.803 0.919-0.537 1.647-1.266 2.184-2.184 0.531-0.919 0.8-1.922 0.8-3.013 0-0.7-0.113-1.366-0.334-1.997h1.334v2.003l3-2.503zM3.316 7.016c0-0.638 0.125-1.244 0.375-1.825s0.584-1.081 1.003-1.5c0.419-0.419 0.919-0.753 1.5-1.003s1.187-0.375 1.825-0.375c0.638 0 1.244 0.125 1.825 0.375s1.081 0.584 1.5 1.003c0.097 0.097 0.191 0.2 0.281 0.306h-3.628l0.003 1.003h4.256c0.028 0.062 0.059 0.125 0.084 0.187 0.25 0.581 0.375 1.187 0.375 1.825s-0.125 1.244-0.375 1.825c-0.25 0.581-0.584 1.081-1.003 1.5s-0.919 0.753-1.5 1.003c-0.581 0.25-1.187 0.375-1.825 0.375s-1.244-0.125-1.825-0.375c-0.581-0.25-1.081-0.584-1.5-1.003-0.381-0.381-0.691-0.828-0.931-1.341l4.244 0.003v2l2.991-2.503-2.991-2.506v2.003h-4.581c-0.069-0.319-0.103-0.644-0.103-0.978z"></path>
</svg>
