<?xml version="1.0" encoding="utf-8"?>
<!-- Generated by IcoMoon.io -->
<!DOCTYPE svg PUBLIC "-//W3C//DTD SVG 1.1//EN" "http://www.w3.org/Graphics/SVG/1.1/DTD/svg11.dtd">
<svg version="1.1" xmlns="http://www.w3.org/2000/svg" xmlns:xlink="http://www.w3.org/1999/xlink" width="14" height="14" viewBox="0 0 14 14">
<path d="M13.020 5.987h-1.533v-1.483c0-2.422-2.051-4.504-4.473-4.504s-4.504 2.082-4.504 4.504v1.483h-1.533c-0.521 0-0.946 0.425-0.946 0.946v6.074c0 0.521 0.425 1.008 0.946 0.977h12.043c0.521 0.031 0.946-0.456 0.946-0.977v-6.074c0-0.521-0.425-0.946-0.946-0.946zM4.495 4.504c0.003-1.389 1.13-2.516 2.519-2.519 1.389 0 2.488 1.133 2.488 2.519v1.483h-5.007v-1.483zM12.367 12.003h-7.407c-0.343 0-0.468-0.156-0.468-0.499s0.125-0.499 0.468-0.499h7.407c0.343 0 0.624 0.156 0.624 0.499s-0.281 0.499-0.624 0.499v0.001zM12.367 9.007h-7.407c-0.343 0-0.468-0.156-0.468-0.499s0.125-0.499 0.468-0.499h7.407c0.343 0 0.624 0.156 0.624 0.499s-0.281 0.499-0.624 0.499v0.001z"></path>
</svg>
