<?xml version="1.0" encoding="utf-8"?>
<!-- Generated by IcoMoon.io -->
<!DOCTYPE svg PUBLIC "-//W3C//DTD SVG 1.1//EN" "http://www.w3.org/Graphics/SVG/1.1/DTD/svg11.dtd">
<svg version="1.1" xmlns="http://www.w3.org/2000/svg" xmlns:xlink="http://www.w3.org/1999/xlink" width="14" height="14" viewBox="0 0 14 14">
<path d="M13.874 2.354c-0.021-0.061-0.062-0.11-0.117-0.141-0.143-0.137-0.333-0.217-0.527-0.213l-5.542 0c-0.204 0-0.404 0.081-0.549 0.226s-0.221 0.341-0.221 0.545v0.638c-0.004 0.2 0.077 0.4 0.221 0.545s0.345 0.226 0.545 0.221l2.499 0.004-3.17 3.152-1.826-1.826c-0.106-0.106-0.27-0.106-0.376 0l-4.78 4.78 1.569 1.569 3.399-3.399 1.904 1.904c0.106 0.106 0.27 0.106 0.376 0l4.538-4.538 0.004 2.492c-0.004 0.2 0.077 0.4 0.221 0.545s0.345 0.226 0.549 0.226l0.638-0c0.2-0.004 0.396-0.081 0.541-0.226s0.226-0.345 0.23-0.545v-5.542c0-0.149-0.045-0.293-0.126-0.417z"></path>
</svg>
