<?xml version="1.0" encoding="utf-8"?>
<!-- Generated by IcoMoon.io -->
<!DOCTYPE svg PUBLIC "-//W3C//DTD SVG 1.1//EN" "http://www.w3.org/Graphics/SVG/1.1/DTD/svg11.dtd">
<svg version="1.1" xmlns="http://www.w3.org/2000/svg" xmlns:xlink="http://www.w3.org/1999/xlink" width="14" height="14" viewBox="0 0 14 14">
<path d="M11.853 5.853c0.097-0.097 0.147-0.216 0.147-0.353v-4.997c0-0.134-0.050-0.25-0.15-0.356-0.097-0.097-0.216-0.147-0.353-0.147h-2.997c-0.134 0-0.25 0.050-0.353 0.15-0.097 0.097-0.147 0.216-0.147 0.353v4.997c0 0.134 0.047 0.25 0.147 0.353 0.097 0.097 0.216 0.147 0.353 0.147h3c0.134 0 0.253-0.047 0.353-0.147zM11 4h-2v-1h2v1zM11 2h-1v-1h1v1zM7.497 7h-2.997c-0.134 0-0.25 0.050-0.353 0.15-0.097 0.097-0.147 0.216-0.147 0.35v6.006c0 0.134 0.047 0.25 0.147 0.35 0.097 0.097 0.216 0.147 0.353 0.147h3c0.134 0 0.25-0.047 0.353-0.147 0.097-0.097 0.147-0.216 0.147-0.35v-6.009c0-0.134-0.050-0.25-0.15-0.353-0.097-0.094-0.219-0.144-0.353-0.144zM7 11h-2v-1h2v1zM7 9h-1v-1h1v1zM7 13h-2v-1h2v1zM4 0.503c0-0.134-0.050-0.253-0.15-0.356-0.097-0.097-0.216-0.147-0.35-0.147h-3.006c-0.134 0-0.25 0.050-0.35 0.15-0.094 0.1-0.144 0.219-0.144 0.353v3.997c0 0.134 0.047 0.253 0.147 0.353 0.097 0.097 0.216 0.147 0.35 0.147h3.009c0.134 0 0.25-0.047 0.35-0.147 0.097-0.097 0.147-0.216 0.147-0.353v-3.997zM3 4h-2v-1h2c0 0 0 1 0 1zM3 2h-1v-1h1c0 0 0 1 0 1zM7 1.953v-0.913c-0.006 0-0.016 0-0.022 0-0.694 0-1.359 0.119-1.978 0.334v0.984c0.606-0.259 1.275-0.406 1.978-0.406 0.006 0 0.016 0 0.022 0zM2.062 5.997h-0.975c-0.056 0.331-0.088 0.675-0.088 1.025 0 1.775 0.772 3.369 2 4.462v-1.469c-0.647-0.844-1.031-1.9-1.031-3.047 0-0.331 0.031-0.656 0.094-0.972zM11 9.956v1.484c1.203-1.094 1.959-2.669 1.959-4.425 0-0.003 0-0.009 0-0.012h-0.969c-0.009 1.109-0.375 2.128-0.991 2.953zM13 0.984h1v4.031h-1v-4.031zM9 8h1v5h-1v-5z"></path>
</svg>
