<?xml version="1.0" encoding="utf-8"?>
<!-- Generator: Adobe Illustrator 20.1.0, SVG Export Plug-In . SVG Version: 6.00 Build 0)  -->
<svg version="1.1" id="Layer_1" xmlns="http://www.w3.org/2000/svg" xmlns:xlink="http://www.w3.org/1999/xlink" x="0px" y="0px"
	 viewBox="0 0 416 448" style="enable-background:new 0 0 416 448;" xml:space="preserve">
<path d="M397.5,84c-49.8-49.8-190-52-190-52C46.9,32,16,86.5,16,86.5c-10,15-0.1,25.5-0.1,25.5l144,144.5V368
	c0,4.2,1.8,8.2,4.8,11.2l64,64c3,3.2,7,4.8,11.2,4.8c2,0,4.2-0.5,6.2-1.2c5.8-2.5,9.8-8.2,9.8-14.8V256.5L400,113c0,0-1,0.7-2.4,0.5
	l2.4-0.5C408.9,98,397.5,84,397.5,84z M208,129c-79.5,0-147-7.9-147-23.9s67.5-33.9,147-33.9s147,17.9,147,33.9S287.5,129,208,129
	L208,129z"/>
</svg>
