<?xml version="1.0" encoding="utf-8"?>
<!-- Generated by IcoMoon.io -->
<!DOCTYPE svg PUBLIC "-//W3C//DTD SVG 1.1//EN" "http://www.w3.org/Graphics/SVG/1.1/DTD/svg11.dtd">
<svg version="1.1" xmlns="http://www.w3.org/2000/svg" xmlns:xlink="http://www.w3.org/1999/xlink" width="14" height="14" viewBox="0 0 14 14">
<path d="M11.47 4.052c-0.234-2.223-2.177-4.052-4.446-4.052-2.421 0-4.501 2.081-4.501 4.501v1.482h-1.532c-0.522 0.001-0.944 0.423-0.945 0.945v6.070c0 0.521 0.424 1.008 0.945 0.976h12.034c0.521 0.031 0.945-0.455 0.945-0.976v-6.071c-0.001-0.522-0.423-0.944-0.945-0.945l-8.519 0.001v-1.482c0.003-1.389 1.128-2.515 2.517-2.517 1.215 0 2.207 0.898 2.436 2.042l2.010 0.025zM12.357 11.994h-7.402c-0.343 0-0.468-0.156-0.468-0.499s0.125-0.499 0.468-0.499h7.402c0.343 0 0.624 0.156 0.624 0.499s-0.281 0.498-0.624 0.498v0.001zM12.357 9h-7.402c-0.343 0-0.468-0.156-0.468-0.499s0.125-0.499 0.468-0.499h7.402c0.343 0 0.624 0.156 0.624 0.499s-0.281 0.498-0.624 0.498v0.001z"></path>
</svg>
