<?xml version="1.0" encoding="utf-8"?>
<!-- Generated by IcoMoon.io -->
<!DOCTYPE svg PUBLIC "-//W3C//DTD SVG 1.1//EN" "http://www.w3.org/Graphics/SVG/1.1/DTD/svg11.dtd">
<svg version="1.1" xmlns="http://www.w3.org/2000/svg" xmlns:xlink="http://www.w3.org/1999/xlink" width="13" height="14" viewBox="0 0 13 14">
<path d="M9.887 8.23c-0.060-0.086-0.139-0.147-0.238-0.183l-2.999-0.999c-0.057-0.021-0.115-0.031-0.172-0.031-0.003 0-0.005 0-0.008 0s-0.005-0-0.008-0c-0.057 0-0.114 0.010-0.172 0.031l-2.967 0.999c-0.099 0.037-0.178 0.097-0.238 0.183s-0.090 0.181-0.090 0.285v3.896c0 0.091 0.023 0.176 0.070 0.254s0.111 0.139 0.191 0.183l2.967 1.075c0.073 0.042 0.152 0.062 0.238 0.062 0.003 0 0.005-0 0.008-0s0.005 0 0.008 0c0.086 0 0.165-0.021 0.238-0.062l2.999-1.075c0.081-0.044 0.144-0.105 0.191-0.183s0.070-0.163 0.070-0.254v-3.896c0-0.104-0.030-0.199-0.090-0.285zM8.983 12.047v-0.062l-2.51 1.005-2.49-0.958v-0.845l2.49 0.9 2.51-0.885v0.845zM8.983 10.050l-2.51 0.988-2.49-1.004v-0.898l2.49 0.907 2.51-0.924v0.931z"></path>
<path d="M5.902 1.23c-0.060-0.086-0.139-0.147-0.238-0.183l-2.499-1c-0.057-0.021-0.115-0.031-0.172-0.031-0.003 0-0.005 0-0.008 0s-0.005-0-0.008-0c-0.057 0-0.114 0.010-0.172 0.031l-2.467 0.999c-0.099 0.037-0.178 0.097-0.238 0.183s-0.090 0.181-0.090 0.285v3.896c0 0.091 0.023 0.176 0.070 0.254s0.111 0.139 0.191 0.183l2.468 1.075c0.073 0.042 0.152 0.062 0.238 0.062 0.003 0 0.005-0 0.008-0s0.005 0 0.008 0c0.086 0 0.165-0.021 0.238-0.062l2.499-1.075c0.081-0.044 0.144-0.105 0.191-0.183s0.070-0.163 0.070-0.254v-3.896c0-0.104-0.030-0.199-0.090-0.285zM4.997 5.047v-0.062l-2.010 1.005-1.99-0.958v-0.907l1.99 0.962 2.010-1.041v1.001zM4.997 2.988l-2.010 1.050-1.99-1.035v-0.867l1.99 0.907 2.010-0.924v0.868z"></path>
<path d="M12.901 1.23c-0.060-0.086-0.139-0.147-0.238-0.183l-2.499-1c-0.057-0.021-0.115-0.031-0.172-0.031-0.003 0-0.005 0-0.008 0s-0.005-0-0.008-0c-0.057 0-0.114 0.010-0.172 0.031l-2.467 0.999c-0.099 0.037-0.178 0.097-0.238 0.183s-0.090 0.181-0.090 0.285v3.896c0 0.091 0.023 0.176 0.070 0.254s0.111 0.139 0.191 0.183l2.468 1.075c0.073 0.042 0.152 0.062 0.238 0.062 0.003 0 0.005-0 0.008-0s0.005 0 0.008 0c0.086 0 0.165-0.021 0.238-0.062l2.499-1.075c0.081-0.044 0.144-0.105 0.191-0.183s0.070-0.163 0.070-0.254v-3.895c0-0.104-0.030-0.199-0.090-0.285zM11.997 5.047v-0.062l-2.010 1.005-1.99-0.958v-0.907l1.99 0.963 2.010-1.041v1.001zM11.997 2.988l-2.010 1.050-1.99-1.035v-0.867l1.99 0.907 2.010-0.924v0.868z"></path>
</svg>
