<?xml version="1.0" encoding="utf-8"?>
<!-- Generated by IcoMoon.io -->
<!DOCTYPE svg PUBLIC "-//W3C//DTD SVG 1.1//EN" "http://www.w3.org/Graphics/SVG/1.1/DTD/svg11.dtd">
<svg version="1.1" xmlns="http://www.w3.org/2000/svg" xmlns:xlink="http://www.w3.org/1999/xlink" width="10" height="14" viewBox="0 0 10 14">
<path d="M1.319 2c-0.066 0.001-0.125 0.027-0.177 0.078l-1.064 1.064c-0.052 0.052-0.078 0.111-0.078 0.177s0.025 0.125 0.076 0.175l8.43 8.43c0.051 0.051 0.109 0.076 0.175 0.076s0.125-0.027 0.177-0.078l1.064-1.064c0.052-0.052 0.078-0.11 0.078-0.177s-0.025-0.124-0.076-0.175l-8.43-8.43c-0.051-0.051-0.109-0.076-0.175-0.076zM8.506 2.076l-8.43 8.43c-0.051 0.051-0.076 0.109-0.076 0.175s0.027 0.125 0.078 0.177l1.064 1.064c0.052 0.052 0.111 0.078 0.177 0.078s0.124-0.025 0.175-0.076l8.43-8.43c0.051-0.051 0.076-0.109 0.076-0.175s-0.027-0.125-0.078-0.177l-1.064-1.064c-0.052-0.052-0.11-0.078-0.176-0.079s-0.124 0.025-0.175 0.076z"></path>
</svg>
