<?xml version="1.0" encoding="utf-8"?>
<!-- Generated by IcoMoon.io -->
<!DOCTYPE svg PUBLIC "-//W3C//DTD SVG 1.1//EN" "http://www.w3.org/Graphics/SVG/1.1/DTD/svg11.dtd">
<svg version="1.1" xmlns="http://www.w3.org/2000/svg" xmlns:xlink="http://www.w3.org/1999/xlink" width="14" height="14" viewBox="0 0 14 14">
<path d="M6.993 0.021c0.091 0 0.179 0.012 0.266 0.034s0.166 0.057 0.239 0.102c0.082 0.046 0.152 0.1 0.212 0.164s0.111 0.137 0.157 0.218l5.988 11.515c0.091 0.164 0.134 0.327 0.13 0.491s-0.053 0.327-0.143 0.491c-0.046 0.082-0.098 0.152-0.157 0.212s-0.13 0.112-0.212 0.157c-0.073 0.037-0.15 0.066-0.232 0.089s-0.168 0.034-0.259 0.034h-11.977c-0.091 0-0.177-0.011-0.259-0.034s-0.159-0.052-0.232-0.089c-0.082-0.045-0.152-0.097-0.212-0.157s-0.112-0.13-0.157-0.212c-0.091-0.164-0.138-0.327-0.143-0.491s0.038-0.327 0.13-0.491l5.988-11.515c0.045-0.082 0.097-0.154 0.157-0.218s0.13-0.118 0.212-0.164c0.073-0.045 0.152-0.079 0.239-0.102s0.175-0.034 0.266-0.034zM1.818 11.998h10.381l-5.206-10.139-5.175 10.139zM7.976 10.86c-0.029 0.077-0.103 0.13-0.191 0.13-0.195 0-0.39 0-0.584 0-0.289 0-0.578 0-0.867 0-0.151 0-0.336-0.008-0.336-0.205 0 0 0-0.606 0-0.609 0-0.117 0.088-0.205 0.205-0.205 0 0 1.582 0 1.583 0 0.116 0 0.205 0.088 0.205 0.205 0 0 0 0.609 0 0.609 0 0.027-0.005 0.052-0.014 0.075zM7.982 8.872c-0.029 0.077-0.103 0.13-0.191 0.13-0.195 0-0.39 0-0.584 0-0.289 0-0.578 0-0.867 0-0.151 0-0.336-0.008-0.336-0.205 0 0 0-3.075 0-3.078 0-0.117 0.088-0.205 0.205-0.205 0 0 1.582 0 1.583 0 0.116 0 0.205 0.088 0.205 0.205 0 0 0 3.078 0 3.078 0 0.027-0.005 0.052-0.014 0.075z"></path>
</svg>
