<?xml version="1.0" encoding="utf-8"?>
<!-- Generated by IcoMoon.io -->
<!DOCTYPE svg PUBLIC "-//W3C//DTD SVG 1.1//EN" "http://www.w3.org/Graphics/SVG/1.1/DTD/svg11.dtd">
<svg version="1.1" xmlns="http://www.w3.org/2000/svg" xmlns:xlink="http://www.w3.org/1999/xlink" width="15" height="14" viewBox="0 0 15 14">
<path d="M7.497 4.834c-0.306 0-0.569 0.109-0.784 0.325s-0.325 0.478-0.325 0.784v0.831h2.216v-0.831c0-0.306-0.109-0.569-0.325-0.784-0.213-0.219-0.475-0.325-0.781-0.325zM14.344 7.153c-0.438-0.544-0.994-0.894-1.666-1.050 0.213-0.328 0.319-0.688 0.319-1.078 0-0.553-0.194-1.025-0.587-1.416-0.384-0.391-0.856-0.587-1.409-0.587-0.5 0-0.931 0.163-1.297 0.484-0.306-0.741-0.797-1.338-1.466-1.797s-1.416-0.688-2.237-0.688c-1.103 0-2.047 0.391-2.828 1.172s-1.172 1.725-1.172 2.828c0 0.078 0.006 0.191 0.016 0.338-0.603 0.281-1.091 0.706-1.462 1.278-0.369 0.569-0.553 1.197-0.553 1.884 0 0.962 0.344 1.788 1.028 2.472s1.509 1.028 2.472 1.028h8.5c0.828 0 1.534-0.294 2.122-0.878 0.587-0.587 0.878-1.294 0.878-2.122 0-0.703-0.219-1.325-0.656-1.869zM9.991 9.581c0 0.116-0.041 0.213-0.122 0.294s-0.178 0.122-0.294 0.122h-4.156c-0.116 0-0.213-0.041-0.294-0.122s-0.122-0.178-0.122-0.294v-2.397c0-0.116 0.041-0.213 0.122-0.294s0.178-0.122 0.294-0.122h0.137v-0.831c0-0.531 0.191-0.984 0.572-1.366s0.837-0.572 1.369-0.572 0.988 0.191 1.369 0.572c0.381 0.381 0.572 0.834 0.572 1.366v0.831h0.137c0.116 0 0.213 0.041 0.294 0.122s0.122 0.178 0.122 0.294v2.397z"></path>
</svg>
