<?xml version="1.0" encoding="utf-8"?>
<!-- Generated by IcoMoon.io -->
<!DOCTYPE svg PUBLIC "-//W3C//DTD SVG 1.1//EN" "http://www.w3.org/Graphics/SVG/1.1/DTD/svg11.dtd">
<svg version="1.1" xmlns="http://www.w3.org/2000/svg" xmlns:xlink="http://www.w3.org/1999/xlink" width="14" height="14" viewBox="0 0 14 14">
<path d="M7 13.984c-0.966 0-1.873-0.183-2.721-0.547s-1.588-0.866-2.222-1.504c-0.634-0.638-1.135-1.381-1.504-2.228s-0.554-1.755-0.554-2.721c0-0.966 0.185-1.873 0.554-2.721s0.87-1.588 1.504-2.222c0.633-0.633 1.374-1.135 2.222-1.504s1.755-0.554 2.721-0.554c0.966 0 1.873 0.185 2.721 0.554s1.588 0.871 2.222 1.504c0.633 0.634 1.135 1.374 1.504 2.222s0.554 1.755 0.554 2.721c0 0.966-0.185 1.873-0.554 2.721s-0.871 1.591-1.504 2.228c-0.634 0.638-1.374 1.139-2.222 1.504s-1.755 0.547-2.721 0.547zM4.943 2.097c-0.642 0.278-1.206 0.658-1.688 1.142s-0.864 1.046-1.142 1.688c-0.278 0.642-0.417 1.328-0.417 2.057s0.139 1.418 0.417 2.064c0.278 0.647 0.658 1.21 1.142 1.688s1.046 0.857 1.688 1.135c0.642 0.278 1.328 0.417 2.057 0.417s1.415-0.139 2.057-0.417c0.642-0.278 1.205-0.656 1.688-1.135s0.863-1.041 1.142-1.688c0.278-0.647 0.417-1.335 0.417-2.064s-0.139-1.415-0.417-2.057c-0.278-0.642-0.659-1.205-1.142-1.688s-1.046-0.863-1.688-1.142c-0.642-0.278-1.328-0.417-2.057-0.417s-1.415 0.139-2.057 0.417zM7.998 4.754v-0.994c0-0.036-0.005-0.071-0.014-0.102s-0.027-0.057-0.055-0.075c-0.027-0.027-0.055-0.048-0.082-0.062s-0.059-0.021-0.096-0.021h-1.504c-0.037 0-0.068 0.007-0.096 0.021s-0.055 0.034-0.082 0.062c-0.027 0.018-0.046 0.043-0.055 0.075s-0.014 0.066-0.014 0.102v0.994c0 0.037 0.004 0.071 0.014 0.102s0.027 0.057 0.055 0.075c0.027 0.027 0.055 0.046 0.082 0.055s0.059 0.014 0.096 0.014h1.504c0.036 0 0.068-0.004 0.096-0.014s0.055-0.027 0.082-0.055c0.027-0.018 0.046-0.043 0.055-0.075s0.014-0.066 0.014-0.102zM7.998 9.754v-3.494c0-0.036-0.005-0.071-0.014-0.102s-0.027-0.062-0.055-0.089c-0.027-0.018-0.055-0.034-0.082-0.048s-0.059-0.021-0.096-0.021h-1.504c-0.037 0-0.068 0.007-0.096 0.021s-0.055 0.030-0.082 0.048c-0.027 0.027-0.046 0.057-0.055 0.089s-0.014 0.066-0.014 0.102v3.494c0 0.037 0.004 0.071 0.014 0.102s0.027 0.057 0.055 0.075c0.027 0.027 0.055 0.046 0.082 0.055s0.059 0.014 0.096 0.014h1.504c0.036 0 0.068-0.004 0.096-0.014s0.055-0.027 0.082-0.055c0.027-0.018 0.046-0.043 0.055-0.075s0.014-0.066 0.014-0.102z"></path>
<path d="M7.748 7h-1.998c-0.137 0-0.25-0.113-0.25-0.25v-0.5c0-0.137 0.113-0.25 0.25-0.25h1.998c0.137 0 0.25 0.113 0.25 0.25v0.5c0 0.137-0.113 0.25-0.25 0.25z"></path>
<path d="M8.25 10h-2.5c-0.137 0-0.25-0.113-0.25-0.25v-0.5c0-0.137 0.113-0.25 0.25-0.25h2.5c0.137 0 0.25 0.113 0.25 0.25v0.5c0 0.137-0.113 0.25-0.25 0.25z"></path>
</svg>
