<?xml version="1.0" encoding="utf-8"?>
<!-- Generated by IcoMoon.io -->
<!DOCTYPE svg PUBLIC "-//W3C//DTD SVG 1.1//EN" "http://www.w3.org/Graphics/SVG/1.1/DTD/svg11.dtd">
<svg version="1.1" xmlns="http://www.w3.org/2000/svg" xmlns:xlink="http://www.w3.org/1999/xlink" width="14" height="14" viewBox="0 0 14 14">
<path d="M13.999 7.111c-0.006-0.078-0.038-0.14-0.096-0.187l-6.244-5.705c-0.185-0.151-0.405-0.226-0.66-0.226s-0.475 0.075-0.66 0.226l-6.244 5.705c-0.058 0.046-0.090 0.109-0.096 0.187s0.014 0.146 0.061 0.204l0.479 0.587c0.046 0.052 0.107 0.084 0.182 0.096 0.014 0.001 0.501 0.002 1.275 0.002v4.451c0 0.151 0.055 0.281 0.165 0.391s0.24 0.165 0.391 0.165h3.446v-4.013h2v4.013h3.446c0.151 0 0.281-0.055 0.391-0.165s0.165-0.24 0.165-0.391v-4.453c0.758-0 1.234 0 1.249 0h0.026c0.075-0.012 0.136-0.044 0.182-0.096l0.479-0.587c0.046-0.058 0.067-0.126 0.061-0.204z"></path>
</svg>
