<?xml version="1.0" encoding="utf-8"?>
<!-- Generated by IcoMoon.io -->
<!DOCTYPE svg PUBLIC "-//W3C//DTD SVG 1.1//EN" "http://www.w3.org/Graphics/SVG/1.1/DTD/svg11.dtd">
<svg version="1.1" xmlns="http://www.w3.org/2000/svg" xmlns:xlink="http://www.w3.org/1999/xlink" width="14" height="14" viewBox="0 0 14 14">
<path d="M13 7h0.25c0.412 0 0.75-0.338 0.75-0.75v-2.5c0-0.412-0.338-0.75-0.75-0.75h-0.25v-3h-2v3h-0.25c-0.412 0-0.75 0.338-0.75 0.75v2.5c0 0.412 0.338 0.75 0.75 0.75h0.25v7h2v-7zM11 4h2v2h-2v-2zM8.25 11c0.412 0 0.75-0.338 0.75-0.75v-2.5c0-0.412-0.338-0.75-0.75-0.75h-0.25v-7h-2v7h-0.25c-0.412 0-0.75 0.338-0.75 0.75v2.5c0 0.412 0.338 0.75 0.75 0.75h0.25v3h2v-3h0.25zM6 8h2v2h-2v-2zM3.25 7c0.412 0 0.75-0.338 0.75-0.75v-2.5c0-0.412-0.338-0.75-0.75-0.75h-0.25v-3h-2v3h-0.25c-0.412 0-0.75 0.338-0.75 0.75v2.5c0 0.412 0.338 0.75 0.75 0.75h0.25v7h2v-7h0.25zM1 4h2v2h-2v-2z"></path>
</svg>
