<?xml version="1.0" encoding="utf-8"?>
<!-- Generated by IcoMoon.io -->
<!DOCTYPE svg PUBLIC "-//W3C//DTD SVG 1.1//EN" "http://www.w3.org/Graphics/SVG/1.1/DTD/svg11.dtd">
<svg version="1.1" xmlns="http://www.w3.org/2000/svg" xmlns:xlink="http://www.w3.org/1999/xlink" width="14" height="14" viewBox="0 0 14 14">
<path d="M-0.019 5.509v-2.006c0-0.134 0.050-0.253 0.15-0.353s0.216-0.15 0.353-0.15h13.047c0.134 0 0.253 0.050 0.353 0.15s0.15 0.216 0.15 0.353v2.006c0 0.137-0.050 0.253-0.15 0.353s-0.216 0.15-0.353 0.15h-13.050c-0.137 0-0.253-0.050-0.353-0.15-0.097-0.1-0.147-0.216-0.147-0.353zM11.847 5.009h1.178v-1.003h-1.178v1.003zM1.15 5.009h1.178v-1.003h-1.178v1.003zM3.056 5.009h1.178v-1.003h-1.178v1.003zM4.959 5.009h1.178v-1.003h-1.178v1.003zM6.866 5.009h1.178v-1.003h-1.178v1.003zM-0.019 13.494v-2.006c0-0.134 0.050-0.253 0.15-0.353s0.216-0.15 0.353-0.15h13.047c0.134 0 0.253 0.050 0.353 0.15s0.15 0.216 0.15 0.353v2.006c0 0.137-0.050 0.253-0.15 0.353s-0.216 0.15-0.353 0.15h-13.050c-0.137 0-0.253-0.050-0.353-0.15-0.097-0.1-0.147-0.219-0.147-0.353zM11.847 12.991h1.178v-1.003h-1.178v1.003zM1.15 12.991h1.178v-1.003h-1.178v1.003zM3.056 12.991h1.178v-1.003h-1.178v1.003zM4.959 12.991h1.178v-1.003h-1.178v1.003zM6.866 12.991h1.178v-1.003h-1.178v1.003zM-0.019 9.528v-2.006c0-0.134 0.050-0.253 0.15-0.353s0.216-0.15 0.353-0.15h13.047c0.134 0 0.253 0.050 0.353 0.15s0.15 0.216 0.15 0.353v2.006c0 0.137-0.050 0.253-0.15 0.353s-0.216 0.15-0.353 0.15h-13.050c-0.137 0-0.253-0.050-0.353-0.15-0.097-0.1-0.147-0.219-0.147-0.353zM11.847 9.025h1.178v-1.003h-1.178v1.003zM1.15 9.025h1.178v-1.003h-1.178v1.003zM3.056 9.025h1.178v-1.003h-1.178v1.003zM4.959 9.025h1.178v-1.003h-1.178v1.003zM6.866 9.025h1.178v-1.003h-1.178v1.003zM-0.031 2.347c-0.038-0.078 0.003-0.175 0.119-0.288 0 0 1.944-1.741 2.088-1.909s0.328-0.134 0.328-0.134h9c0 0 0.163-0.019 0.309 0.141 0.144 0.159 2.066 1.903 2.066 1.903 0.116 0.116 0.156 0.209 0.119 0.288s-0.134 0.119-0.294 0.119h-13.444c-0.156 0-0.256-0.041-0.291-0.119z"></path>
</svg>
