<?xml version="1.0" encoding="utf-8"?>
<!-- Generator: Adobe Illustrator 20.1.0, SVG Export Plug-In . SVG Version: 6.00 Build 0)  -->
<svg version="1.1" id="Layer_1" xmlns="http://www.w3.org/2000/svg" xmlns:xlink="http://www.w3.org/1999/xlink" x="0px" y="0px"
	 viewBox="0 0 512 448" style="enable-background:new 0 0 512 448;" xml:space="preserve">
<path d="M114.3,127.5c16.1,0,20-13.8,11.5-23c-13.8-15.4-6.5-39.6,18.4-40.7c25,1.2,32.3,25.3,18.4,40.7
	c-8.4,9.2-4.6,23.1,11.5,23.1h29.2c11.5,0,21.1,9.6,21.1,21.1v29.2c0,16.1,13.8,20,23.1,11.5c15.4-13.8,39.6-6.5,40.3,18.8
	c-1.1,25-25,32.6-40.7,18.4c-9.2-8.4-23.1-4.6-23.1,11.5v91.9c0,11.5-9.6,21.1-21.1,21.1h-29.2c3.1-6.1,5-13.4,5-20.4
	c0-24.6-15.8-35.8-34.9-35.4h0.5c-26.1,0.8-37.9,11.6-37.9,35.4c0,6.9,1.5,13.8,5,20.4H86.7c-11.9-0.4-22.5-10-22.5-21.5v-91.2
	c0-16.1-13.8-20-23-11.5c-15,13.4-37.8,5.8-39-19.2c1.2-25,24-32.6,39.3-18.8c9.2,8.4,22,4.6,22-11.5v-29.2
	c0-11.5,9.6-21.1,21.1-21.1L114.3,127.5L114.3,127.5z"/>
<path d="M173,83c0,15.7-12.7,28.4-28.4,28.4S116.3,98.7,116.3,83s12.7-28.4,28.4-28.4S173,67.3,173,83z"/>
<path d="M56.7,208.6c0,15.7-12.7,28.4-28.4,28.4S0,224.2,0,208.6s12.7-28.4,28.4-28.4S56.7,192.9,56.7,208.6z"/>
<path d="M291,208.6c0,15.7-12.7,28.4-28.4,28.4s-28.4-12.7-28.4-28.4s12.7-28.4,28.4-28.4S291,192.9,291,208.6z"/>
<path d="M469.4,189.7c-9.2,8.4-21,4.6-21-11.5l0.4-29.6c0-11.5-9.6-21.1-21.1-21.1h-29.2c-16.1,0-20-13.8-11.5-23
	c13.8-15.4,6.1-39.2-18.8-40.3c-25,1.2-32.6,24-19.2,38.9c8.5,9.2,4.6,23.1-11.5,23.1h-59.2c-11.5,0-21.1,10.6-21.5,22.5v5.8
	c2.9-0.5,5.9-0.7,9-0.7c31.3,0,56.7,25.4,56.7,56.7S297,267,265.7,267c-3,0-6-0.2-9-0.7v32.6c0,11.5,9.6,21.1,21.1,21.1h60
	c16.1,0,20,13.8,11.5,23c-14.2,15.8-6.5,39.6,18.4,40.7c25.4-0.8,32.6-25,18.8-40.3c-8.5-9.2-4.6-23,11.5-23h31.2
	c11.5,0,19.1-10.6,19.1-22.1v-60.2c0-16.1,11.8-20,21-11.5c15.4,13.8,39.6,6.5,40.7-18.4C509,183.2,484.8,175.9,469.4,189.7
	L469.4,189.7z"/>
<path d="M512.3,208.6c0,15.7-12.7,28.4-28.4,28.4s-28.4-12.7-28.4-28.4s12.7-28.4,28.4-28.4S512.3,192.9,512.3,208.6z"/>
<path d="M395.7,85.3c0,15.7-12.7,28.4-28.4,28.4S339,101,339,85.3c0-15.7,12.7-28.4,28.4-28.4S395.7,69.6,395.7,85.3z"/>
<path d="M395.7,363.5c0,15.7-12.7,28.4-28.4,28.4S339,379.2,339,363.5s12.7-28.4,28.4-28.4S395.7,347.9,395.7,363.5z"/>
</svg>
