<?xml version="1.0" encoding="utf-8"?>
<!-- Generated by IcoMoon.io -->
<!DOCTYPE svg PUBLIC "-//W3C//DTD SVG 1.1//EN" "http://www.w3.org/Graphics/SVG/1.1/DTD/svg11.dtd">
<svg version="1.1" xmlns="http://www.w3.org/2000/svg" xmlns:xlink="http://www.w3.org/1999/xlink" width="14" height="14" viewBox="0 0 14 14">
<path d="M13.806 2.622c-0.128-0.184-0.3-0.316-0.513-0.394l-5.922-2.156c-0.119-0.044-0.237-0.066-0.356-0.066-0.003 0-0.006 0-0.009 0h-0.006c-0.003 0-0.006 0-0.009 0-0.119 0.003-0.237 0.025-0.356 0.066l-5.919 2.153c-0.213 0.078-0.384 0.209-0.513 0.394s-0.194 0.391-0.194 0.612v6.463c0 0.197 0.050 0.378 0.15 0.547s0.237 0.3 0.412 0.397l5.922 3.228c0.153 0.088 0.319 0.131 0.497 0.134 0.003 0 0.006 0 0.009 0h0.006c0.003 0 0.006 0 0.009 0 0.178-0.003 0.344-0.047 0.497-0.134l5.925-3.231c0.175-0.094 0.312-0.228 0.412-0.397s0.15-0.35 0.15-0.547v-6.456c0-0.225-0.066-0.428-0.194-0.613zM7 1.275l5.278 1.944-5.278 1.916-5.194-1.913 5.194-1.947zM6 8.391c-0.731-0.291-3.222-1.278-4.35-1.728l2.997-1.031 1.353 0.487v2.272zM8 6.122l1.362-0.491 2.997 1.031c-1.134 0.45-3.641 1.447-4.359 1.731v-2.272zM1 4.359l2.144 0.728-2.144 0.725v-1.453zM1 7.866l1.65 0.681-1.65 0.553v-1.234zM3.994 9.147l2.006 0.897v2.1l-4.216-2.281 2.209-0.716zM8 12.147v-2.103l2.016-0.9 2.209 0.712-4.225 2.291zM13.006 9.084l-1.647-0.537 1.647-0.697v1.234zM13.006 5.797l-2.141-0.706 2.141-0.744v1.45z"></path>
</svg>
