<?xml version="1.0" encoding="utf-8"?>
<!-- Generated by IcoMoon.io -->
<!DOCTYPE svg PUBLIC "-//W3C//DTD SVG 1.1//EN" "http://www.w3.org/Graphics/SVG/1.1/DTD/svg11.dtd">
<svg version="1.1" xmlns="http://www.w3.org/2000/svg" xmlns:xlink="http://www.w3.org/1999/xlink" width="14" height="14" viewBox="0 0 14 14">
<path d="M0.769 1.997h-0.494c-0.137 0-0.262 0.131-0.262 0.272v1.513l-0.003 7.988c0 0.137 0.128 0.231 0.263 0.231h0.494c0.137 0 0.234-0.094 0.234-0.231v-9.5c0-0.137-0.097-0.272-0.231-0.272zM13.766 1.997h-0.494c-0.137 0-0.262 0.131-0.262 0.272v1.513l-0.003 7.988c0 0.137 0.128 0.231 0.263 0.231h0.494c0.137 0 0.234-0.094 0.234-0.231v-9.5c0-0.137-0.097-0.272-0.231-0.272zM5.319 5h0.669v1.012h-0.669v-1.012zM11.506 1.006h-9.012c-0.281 0-0.491 0.244-0.491 0.525v10.972c0 0.281 0.209 0.494 0.491 0.494h9.016c0.281 0 0.491-0.244 0.491-0.525v-10.972c-0.003-0.281-0.213-0.494-0.494-0.494zM9.013 9.591h-0.803v0.803h0.803v0.806h-0.803v0.803h-0.806v-0.803h-0.803v0.803h-0.803v-0.803h-0.803v-0.806h0.803v-0.803h-0.803v-0.803h0.803v-0.803h0.803v0.803h0.803v-0.803h0.806v0.803h0.803v0.803zM10.006 4.997h-0.744v2.003h-4.541v-2.003h-0.747v-3.013h6.031v3.013zM6.656 5h0.669v1.012h-0.669v-1.012zM7.997 5h0.669v1.012h-0.669v-1.012z"></path>
</svg>
