<?xml version="1.0" encoding="utf-8"?>
<!-- Generated by IcoMoon.io -->
<!DOCTYPE svg PUBLIC "-//W3C//DTD SVG 1.1//EN" "http://www.w3.org/Graphics/SVG/1.1/DTD/svg11.dtd">
<svg version="1.1" xmlns="http://www.w3.org/2000/svg" xmlns:xlink="http://www.w3.org/1999/xlink" width="14" height="14" viewBox="0 0 14 14">
<path d="M13.050 3.494c-0.628-1.072-1.475-1.919-2.544-2.544s-2.237-0.937-3.506-0.937-2.438 0.312-3.506 0.937c-1.069 0.622-1.919 1.472-2.541 2.541-0.625 1.069-0.937 2.241-0.937 3.506s0.309 2.438 0.934 3.509c0.625 1.072 1.475 1.919 2.544 2.544s2.237 0.937 3.506 0.937 2.438-0.312 3.506-0.937c1.072-0.625 1.919-1.475 2.544-2.544s0.937-2.237 0.937-3.506c0-1.269-0.312-2.438-0.937-3.506zM11.063 9.544c0 0.409-0.159 0.797-0.45 1.088-0.288 0.291-0.675 0.45-1.088 0.45h-5.047c-0.412 0-0.797-0.159-1.088-0.45-0.291-0.288-0.45-0.675-0.45-1.088v-2.859c0-0.409 0.159-0.797 0.45-1.088 0.1-0.1 0.209-0.181 0.328-0.25v-0.091c0-0.884 0.334-1.688 0.966-2.319s1.434-0.966 2.319-0.966 1.688 0.334 2.316 0.966c0.631 0.631 0.966 1.434 0.966 2.319v0.091c0.119 0.069 0.228 0.15 0.328 0.25 0.291 0.291 0.45 0.675 0.45 1.088v2.859zM9.528 6.209h-0.3v-0.953c0-0.609-0.219-1.131-0.656-1.569s-0.959-0.656-1.569-0.656-1.131 0.219-1.569 0.656-0.656 0.959-0.656 1.569v0.953h-0.3c-0.131 0-0.244 0.047-0.338 0.137-0.094 0.094-0.137 0.206-0.137 0.338v2.859c0 0.131 0.047 0.244 0.137 0.338 0.094 0.094 0.206 0.137 0.338 0.137h5.047c0.131 0 0.244-0.047 0.338-0.137 0.094-0.094 0.137-0.206 0.137-0.338v-2.859c0-0.131-0.047-0.244-0.137-0.338-0.091-0.091-0.203-0.137-0.334-0.137zM5.734 6.209v-0.953c0-0.35 0.125-0.65 0.372-0.897s0.547-0.372 0.897-0.372c0.35 0 0.65 0.125 0.897 0.372s0.372 0.547 0.372 0.897v0.953h-2.537z"></path>
</svg>
