<?xml version="1.0" encoding="utf-8"?>
<!-- Generated by IcoMoon.io -->
<!DOCTYPE svg PUBLIC "-//W3C//DTD SVG 1.1//EN" "http://www.w3.org/Graphics/SVG/1.1/DTD/svg11.dtd">
<svg version="1.1" xmlns="http://www.w3.org/2000/svg" xmlns:xlink="http://www.w3.org/1999/xlink" width="14" height="14" viewBox="0 0 14 14">
<path d="M1.075 9.922c-0.050-0.050-0.075-0.109-0.075-0.175v-0.753h-1v0.753c0 0.344 0.122 0.638 0.369 0.884 0.244 0.244 0.541 0.369 0.884 0.369h1.25v-1h-1.253c-0.069-0.006-0.125-0.031-0.175-0.078zM13.634 3.359c-0.244-0.244-0.541-0.369-0.884-0.369h-8.5c-0.344 0-0.638 0.122-0.884 0.369-0.244 0.244-0.369 0.541-0.369 0.884v8.503c0 0.344 0.122 0.638 0.369 0.884 0.244 0.244 0.541 0.369 0.884 0.369h8.503c0.344 0 0.638-0.122 0.884-0.369 0.244-0.244 0.369-0.541 0.369-0.884v-8.503c-0.003-0.344-0.125-0.638-0.372-0.884zM13.003 12.747c0 0.069-0.025 0.125-0.075 0.175s-0.109 0.075-0.175 0.075h-8.503c-0.069 0-0.125-0.025-0.175-0.075s-0.075-0.109-0.075-0.175v-8.503c0-0.069 0.025-0.125 0.075-0.175s0.109-0.075 0.175-0.075h8.503c0.069 0 0.125 0.025 0.175 0.075s0.075 0.109 0.075 0.175v8.503zM0 5.991h1v2.016h-1v-2.016zM0 2.991h1v2.016h-1v-2.016zM1 1.244c0-0.069 0.025-0.125 0.075-0.175s0.109-0.075 0.175-0.075h0.756v-1h-0.756c-0.344 0-0.638 0.122-0.884 0.369-0.244 0.244-0.366 0.537-0.366 0.881v0.762h1v-0.762zM2.994-0.006h2.016v1h-2.016v-1zM9.928 1.069c0.050 0.050 0.075 0.109 0.075 0.175v1.25h1v-1.25c0-0.344-0.122-0.638-0.369-0.884-0.244-0.244-0.541-0.369-0.884-0.369h-0.759v1h0.759c0.069 0.003 0.128 0.028 0.178 0.078zM5.994-0.006h2.016v1h-2.016v-1z"></path>
</svg>
