<?xml version="1.0" encoding="utf-8"?>
<!-- Generated by IcoMoon.io -->
<!DOCTYPE svg PUBLIC "-//W3C//DTD SVG 1.1//EN" "http://www.w3.org/Graphics/SVG/1.1/DTD/svg11.dtd">
<svg version="1.1" xmlns="http://www.w3.org/2000/svg" xmlns:xlink="http://www.w3.org/1999/xlink" width="13" height="14" viewBox="0 0 13 14">
<path d="M11 6.012c0 1.106-0.896 2.002-2.002 2.002s-2.002-0.896-2.002-2.002c0-1.106 0.896-2.002 2.002-2.002s2.002 0.896 2.002 2.002z"></path>
<path d="M6.5 9.51v0c0 0 0.594-0.5 1.5-0.496l2-0.004c0.906 0 1.5 0.5 1.5 0.5s1.5 1 1.5 4.479h-8c0 0 0-3.343 1.5-4.479z"></path>
<path d="M6 3.012c0 1.106-0.896 2.002-2.002 2.002s-2.002-0.896-2.002-2.002c0-1.106 0.896-2.002 2.002-2.002s2.002 0.896 2.002 2.002z"></path>
<path d="M6.531 8c-2.198 0.375-2.594 2.99-2.594 2.99h-3.938c0 0 0-3.344 1.5-4.479v0c0 0 0.594-0.5 1.5-0.496l2-0.004c0.403 0 0.245-0.051 0.5 0.059 0-0-0.031 1.524 1.031 1.93v0z"></path>
</svg>
