<?xml version="1.0" encoding="utf-8"?>
<!-- Generated by IcoMoon.io -->
<!DOCTYPE svg PUBLIC "-//W3C//DTD SVG 1.1//EN" "http://www.w3.org/Graphics/SVG/1.1/DTD/svg11.dtd">
<svg version="1.1" xmlns="http://www.w3.org/2000/svg" xmlns:xlink="http://www.w3.org/1999/xlink" width="14" height="14" viewBox="0 0 14 14">
<path d="M7.001 14c-3.86 0-7.001-3.14-7.001-7 0-3.859 3.141-7 7.001-7s6.999 3.141 6.999 7c0 3.86-3.14 7-6.999 7zM7.001 1.7c-2.923 0-5.301 2.377-5.301 5.3 0 2.924 2.378 5.3 5.301 5.3 2.922 0 5.3-2.376 5.3-5.3 0-2.923-2.378-5.3-5.3-5.3zM9.93 6.071c-0.047-0.048-0.107-0.071-0.18-0.071h-1.75v-1.75c0-0.073-0.024-0.133-0.071-0.18s-0.109-0.070-0.183-0.070h-1.492c-0.074 0-0.135 0.023-0.183 0.070s-0.071 0.107-0.071 0.18v1.75l-1.75 0c-0.073 0-0.133 0.024-0.18 0.071s-0.070 0.108-0.070 0.183v1.492c0 0.074 0.023 0.135 0.070 0.183s0.107 0.071 0.18 0.071l1.75-0v1.75c0 0.073 0.024 0.133 0.071 0.18s0.108 0.070 0.182 0.070h1.492c0.074 0 0.135-0.023 0.183-0.070s0.071-0.107 0.071-0.18v-1.75h1.75c0.073 0 0.133-0.024 0.18-0.071s0.070-0.108 0.070-0.182v-1.492c0-0.074-0.023-0.135-0.070-0.183z"></path>
</svg>
