<?xml version="1.0" encoding="utf-8"?>
<!-- Generated by IcoMoon.io -->
<!DOCTYPE svg PUBLIC "-//W3C//DTD SVG 1.1//EN" "http://www.w3.org/Graphics/SVG/1.1/DTD/svg11.dtd">
<svg version="1.1" xmlns="http://www.w3.org/2000/svg" xmlns:xlink="http://www.w3.org/1999/xlink" width="14" height="14" viewBox="0 0 14 14">
<path d="M13.087 5.228c-0.35 0.137-0.75 0.253-1.197 0.344-0.297 0.066-0.6 0.119-0.909 0.163l0.006 4.141c0.178-0.025 0.356-0.056 0.528-0.088 0.378-0.078 0.722-0.169 1.025-0.269s0.575-0.216 0.8-0.334c0.219-0.128 0.388-0.266 0.497-0.406 0.109-0.144 0.163-0.288 0.163-0.441v-3.588c-0.256 0.181-0.563 0.341-0.913 0.478zM4.981 3.022v0h0.009c0.484 0 0.956 0.022 1.403 0.062 0.478 0.044 0.906 0.106 1.303 0.187v0 0c0.431 0.091 0.8 0.184 1.128 0.288l0.012 0.006c0.375 0.125 0.694 0.262 0.975 0.422l0.012 0.006c0.328 0.194 0.591 0.412 0.778 0.653 0.069 0.088 0.128 0.178 0.178 0.272 0.25-0.031 0.491-0.072 0.725-0.119 0.378-0.069 0.722-0.156 1.025-0.256s0.575-0.219 0.8-0.347c0.219-0.128 0.388-0.263 0.497-0.397s0.163-0.281 0.163-0.431v-1.7c0-0.144-0.053-0.288-0.163-0.428s-0.278-0.278-0.497-0.406c-0.225-0.128-0.491-0.241-0.797-0.344-0.303-0.097-0.647-0.184-1.025-0.262-0.381-0.078-0.781-0.131-1.197-0.172s-0.856-0.056-1.313-0.056c-0.45 0-0.881 0.019-1.3 0.059s-0.822 0.097-1.209 0.172c-0.378 0.075-0.722 0.163-1.025 0.263s-0.569 0.216-0.788 0.344c-0.222 0.128-0.391 0.266-0.503 0.406s-0.172 0.284-0.172 0.428v1.384c0.316-0.025 0.647-0.034 0.978-0.034zM9.088 9.353c-0.322 0.125-0.684 0.234-1.088 0.319v-0.853c0.191-0.047 0.369-0.097 0.534-0.153 0.303-0.1 0.575-0.219 0.8-0.347 0.219-0.128 0.388-0.262 0.497-0.397s0.163-0.281 0.163-0.431v-1.822c0-0.144-0.053-0.288-0.163-0.428s-0.278-0.278-0.497-0.406c-0.225-0.128-0.491-0.241-0.797-0.344-0.303-0.097-0.647-0.184-1.025-0.263-0.381-0.078-0.781-0.131-1.197-0.172s-0.856-0.059-1.313-0.059c-0.45 0-0.881 0.019-1.3 0.059s-0.825 0.097-1.209 0.172c-0.378 0.075-0.722 0.163-1.025 0.263s-0.569 0.216-0.787 0.344c-0.222 0.128-0.391 0.266-0.503 0.406s-0.172 0.284-0.172 0.428v1.822c0 0.153 0.059 0.297 0.172 0.431 0.116 0.137 0.281 0.269 0.503 0.397s0.484 0.247 0.787 0.347c0.163 0.056 0.341 0.106 0.531 0.153v0.853c-0.403-0.088-0.762-0.194-1.081-0.319-0.35-0.137-0.656-0.297-0.913-0.478v3.462c0 0.153 0.059 0.3 0.172 0.441 0.116 0.141 0.281 0.278 0.503 0.406 0.222 0.122 0.484 0.234 0.787 0.334 0.303 0.106 0.653 0.194 1.038 0.269 0.378 0.075 0.781 0.131 1.203 0.159 0.419 0.034 0.85 0.050 1.3 0.050 0.456 0 0.894-0.016 1.306-0.050 0.412-0.031 0.816-0.091 1.203-0.163 0.378-0.078 0.722-0.169 1.025-0.269s0.575-0.216 0.8-0.334c0.219-0.128 0.388-0.266 0.497-0.406 0.109-0.144 0.163-0.288 0.163-0.441v-3.459c-0.259 0.181-0.566 0.341-0.916 0.478zM7.641 11.272c-0.009 0.022-0.025 0.044-0.044 0.062l-0.738 0.734c-0.022 0.022-0.041 0.034-0.062 0.044s-0.047 0.012-0.072 0.012c-0.022 0-0.041-0.003-0.062-0.012s-0.041-0.025-0.053-0.044l-1.609-1.594-1.606 1.6c-0.012 0.022-0.031 0.034-0.053 0.044s-0.044 0.012-0.062 0.012c-0.025 0-0.050-0.003-0.072-0.012s-0.044-0.025-0.062-0.044l-0.738-0.741c-0.022-0.022-0.034-0.041-0.044-0.062s-0.012-0.044-0.012-0.062c0-0.025 0.003-0.050 0.012-0.072s0.025-0.041 0.044-0.053l1.606-1.606-1.575-1.569c-0.022-0.022-0.034-0.041-0.044-0.062s-0.012-0.044-0.012-0.062c0-0.025 0.003-0.050 0.012-0.072s0.025-0.041 0.044-0.053l0.738-0.744c0.022-0.012 0.041-0.025 0.062-0.034s0.044-0.012 0.062-0.012c0.025 0 0.050 0.003 0.072 0.009s0.041 0.022 0.053 0.038l1.581 1.581 1.575-1.575c0.012-0.022 0.031-0.031 0.053-0.038s0.044-0.009 0.062-0.009c0.025 0 0.050 0.003 0.072 0.012s0.044 0.022 0.062 0.034l0.728 0.747c0.022 0.012 0.034 0.031 0.044 0.053s0.012 0.047 0.012 0.072c0 0.022-0.003 0.041-0.012 0.062s-0.025 0.044-0.044 0.062l-1.569 1.563 1.606 1.606c0.022 0.012 0.034 0.031 0.044 0.053s0.012 0.047 0.012 0.072c0 0.019-0.003 0.038-0.012 0.059z"></path>
</svg>
