<?xml version="1.0" encoding="utf-8"?>
<!-- Generated by IcoMoon.io -->
<!DOCTYPE svg PUBLIC "-//W3C//DTD SVG 1.1//EN" "http://www.w3.org/Graphics/SVG/1.1/DTD/svg11.dtd">
<svg version="1.1" xmlns="http://www.w3.org/2000/svg" xmlns:xlink="http://www.w3.org/1999/xlink" width="14" height="14" viewBox="0 0 14 14">
<path d="M0.809 3.998c0.265 0.155 0.579 0.294 0.944 0.417s0.78 0.231 1.245 0.322c0.456 0.091 0.935 0.157 1.437 0.198s1.021 0.062 1.56 0.062c0.538 0 1.058-0.021 1.56-0.062s0.985-0.107 1.45-0.198c0.456-0.091 0.866-0.198 1.231-0.322s0.684-0.262 0.958-0.417c0.265-0.146 0.463-0.303 0.595-0.472s0.198-0.344 0.198-0.527v-0.999c0-0.183-0.066-0.356-0.198-0.52s-0.331-0.323-0.595-0.479c-0.274-0.155-0.593-0.292-0.958-0.41s-0.775-0.223-1.231-0.315c-0.465-0.091-0.949-0.16-1.45-0.205s-1.022-0.068-1.56-0.068c-0.538 0-1.058 0.023-1.56 0.068s-0.985 0.114-1.45 0.205c-0.456 0.091-0.867 0.196-1.231 0.315s-0.68 0.255-0.944 0.41c-0.273 0.155-0.477 0.315-0.609 0.479s-0.198 0.338-0.198 0.52v0.999c0 0.183 0.066 0.358 0.198 0.527s0.335 0.326 0.609 0.472z"></path>
<path d="M12.756 13.734c0.083 0.072 0.238 0.185 0.342 0.216s0.202 0.041 0.295 0.031c0.083-0.011 0.163-0.037 0.241-0.078 0.025-0.013 0.048-0.029 0.070-0.045 0.047-0.035 0.089-0.077 0.124-0.126 0.124-0.155 0.168-0.328 0.132-0.52s-0.142-0.354-0.314-0.535l-2.070-2.149c0 0 0 0-0 0v0c0.035-0.059 0.055-0.098 0.055-0.098 0.121-0.228 0.215-0.472 0.281-0.732 0.088-0.347 0.106-0.702 0.054-1.064-0.042-0.414-0.163-0.795-0.365-1.142s-0.456-0.637-0.761-0.87c-0.306-0.233-0.647-0.406-1.025-0.52s-0.774-0.145-1.188-0.093c-0.414 0.052-0.795 0.176-1.142 0.373s-0.637 0.448-0.87 0.753c-0.233 0.306-0.407 0.65-0.52 1.033s-0.145 0.782-0.093 1.196c0.041 0.404 0.163 0.779 0.365 1.126s0.456 0.64 0.761 0.878c0.305 0.238 0.647 0.412 1.025 0.52s0.774 0.137 1.188 0.085c0.373-0.041 0.717-0.145 1.033-0.311 0.058-0.030 0.113-0.062 0.168-0.095zM9.245 10.988c-0.546 0.072-1.038-0.062-1.475-0.402s-0.687-0.782-0.749-1.328c-0.072-0.546 0.062-1.037 0.402-1.475s0.782-0.687 1.328-0.749c0.556-0.072 1.050 0.062 1.482 0.402s0.679 0.782 0.741 1.328c0.072 0.556-0.062 1.050-0.402 1.482s-0.782 0.68-1.328 0.742z"></path>
<path d="M0.809 10.005c0.264 0.155 0.579 0.292 0.944 0.41s0.78 0.224 1.245 0.315c0.456 0.091 0.935 0.16 1.437 0.205 0.376 0.034 0.762 0.056 1.159 0.064-0.339-0.583-0.534-1.262-0.534-1.985 0-0.011 0-0.021 0-0.032-0.292-0.015-0.578-0.037-0.858-0.066-0.575-0.059-1.131-0.144-1.669-0.253s-1.017-0.246-1.437-0.41c-0.42-0.164-0.785-0.356-1.095-0.575v1.327c0 0.173 0.066 0.344 0.198 0.513s0.335 0.331 0.609 0.486z"></path>
<path d="M10.56 5.374c0.517 0.22 0.977 0.547 1.354 0.952 0.049-0.108 0.073-0.213 0.073-0.316v-1.341c-0.31 0.219-0.675 0.413-1.095 0.582-0.107 0.043-0.218 0.084-0.333 0.123z"></path>
<path d="M2.533 5.668c-0.538-0.109-1.017-0.248-1.437-0.417s-0.785-0.362-1.095-0.582v1.341c0 0.173 0.066 0.344 0.198 0.513s0.335 0.331 0.609 0.486c0.264 0.146 0.579 0.281 0.944 0.404s0.78 0.231 1.245 0.322c0.456 0.091 0.935 0.16 1.437 0.205 0.249 0.023 0.502 0.040 0.759 0.051 0.212-0.793 0.663-1.486 1.272-2-0.156 0.004-0.313 0.006-0.472 0.006-0.62 0-1.218-0.027-1.792-0.082s-1.131-0.137-1.669-0.246z"></path>
<path d="M9.031 12.969c-0.641 0-1.246-0.152-1.781-0.422l-0.009 0.002c-0.298-0.15-0.574-0.335-0.823-0.552-0.14 0.003-0.281 0.006-0.423 0.006-0.611 0-1.206-0.027-1.786-0.082s-1.138-0.141-1.676-0.26c-0.529-0.109-1.006-0.246-1.43-0.41s-0.792-0.356-1.101-0.575v1.327c0 0.183 0.068 0.358 0.205 0.527s0.337 0.326 0.602 0.472c0.264 0.155 0.579 0.294 0.944 0.417s0.78 0.23 1.245 0.322c0.456 0.082 0.935 0.146 1.437 0.192s1.022 0.068 1.56 0.068c0.067 0 0.132-0 0.198-0.001v0.001c0 0 3.163 0.012 4.929-0.849l-0.509-0.511c-0.485 0.211-1.020 0.328-1.582 0.328z"></path>
</svg>
