<?xml version="1.0" encoding="utf-8"?>
<!-- Generated by IcoMoon.io -->
<!DOCTYPE svg PUBLIC "-//W3C//DTD SVG 1.1//EN" "http://www.w3.org/Graphics/SVG/1.1/DTD/svg11.dtd">
<svg version="1.1" xmlns="http://www.w3.org/2000/svg" xmlns:xlink="http://www.w3.org/1999/xlink" width="15" height="14" viewBox="0 0 15 14">
<path fill="#449fdb" d="M14.977 0h0.031v14h-0.031v-14z"></path>
<path fill="#000" d="M12.55 13.984h-12.069c-0.257 0-0.465-0.208-0.465-0.465v-11.058c0-0.257 0.208-0.465 0.465-0.465h4.048l-1.524 1.984h-1.006v8.021h9.010v-0.972l2.005-1.985v4.475c0 0.257-0.208 0.465-0.465 0.465z"></path>
<path fill="#000" d="M9.137 3.007c-3 0-5.447 1.767-5.138 4.751 0.199 1.918 1.164 2.242 2.018 2.755-0.778-1.649 0.498-4.357 3.565-4.513 0.113-0.006 0.307-0.006 0.418 0v3l4.977-4.49-4.977-4.466v2.963h-0.863z"></path>
</svg>
