<?xml version="1.0" encoding="utf-8"?>
<!-- Generated by IcoMoon.io -->
<!DOCTYPE svg PUBLIC "-//W3C//DTD SVG 1.1//EN" "http://www.w3.org/Graphics/SVG/1.1/DTD/svg11.dtd">
<svg version="1.1" xmlns="http://www.w3.org/2000/svg" xmlns:xlink="http://www.w3.org/1999/xlink" width="14" height="14" viewBox="0 0 14 14">
<path d="M10.438 5.867c0 0.141-0.047 0.258-0.141 0.352l-2.814 2.792-0.797 0.797c-0.094 0.094-0.211 0.141-0.352 0.141s-0.258-0.047-0.352-0.141l-2.341-2.34c-0.094-0.094-0.141-0.211-0.141-0.352s0.047-0.258 0.141-0.352l0.686-0.686c0.094-0.094 0.211-0.141 0.352-0.141s0.258 0.047 0.352 0.141l1.281 1.28 2.573-2.551c0.094-0.094 0.211-0.141 0.352-0.141s0.258 0.047 0.352 0.141l0.708 0.709c0.094 0.094 0.141 0.211 0.141 0.352v0zM7.001 14c-3.86 0-7.001-3.14-7.001-7 0-3.859 3.141-7 7.001-7s6.999 3.141 6.999 7c0 3.86-3.14 7-6.999 7zM7.001 1.7c-2.923 0-5.301 2.377-5.301 5.3 0 2.924 2.378 5.3 5.301 5.3 2.922 0 5.3-2.376 5.3-5.3 0-2.923-2.378-5.3-5.3-5.3z"></path>
</svg>
