<?xml version="1.0" encoding="utf-8"?>
<!-- Generated by IcoMoon.io -->
<!DOCTYPE svg PUBLIC "-//W3C//DTD SVG 1.1//EN" "http://www.w3.org/Graphics/SVG/1.1/DTD/svg11.dtd">
<svg version="1.1" xmlns="http://www.w3.org/2000/svg" xmlns:xlink="http://www.w3.org/1999/xlink" width="17" height="14" viewBox="0 0 17 14">
<path d="M16.763 7.116c-0.158-0.077-0.338-0.116-0.54-0.116h-10.71c-1.664 0-2.357 1.086-2.357 1.086l-2.156 2.914 0.997-3.462c0.161-0.431 0.498-0.796 1.013-1.096s1.051-0.443 1.61-0.443h10.385v-2c0 0-0.006-1.006-1.006-1.006-1.143 0-7 0-7 0l-0.709-1.109c0 0-0.411-0.885-1.286-0.885-1 0-3.326 0-4 0-1.143 0-1 1-1 1v11h11.509c0.393 0 0.82-0.105 1.281-0.316s0.82-0.468 1.076-0.77l2.851-3.827c0.185-0.208 0.277-0.404 0.277-0.588 0-0.178-0.079-0.306-0.237-0.383v0z"></path>
</svg>
