<?xml version="1.0" encoding="utf-8"?>
<!-- Generated by IcoMoon.io -->
<!DOCTYPE svg PUBLIC "-//W3C//DTD SVG 1.1//EN" "http://www.w3.org/Graphics/SVG/1.1/DTD/svg11.dtd">
<svg version="1.1" xmlns="http://www.w3.org/2000/svg" xmlns:xlink="http://www.w3.org/1999/xlink" width="14" height="14" viewBox="0 0 14 14">
<path d="M0.012 8.259c-0.038-0.147 0.003-0.331 0.119-0.547 0 0 1.937-4.125 2.081-4.447s0.325-0.253 0.325-0.253h8.966c0 0 0.163-0.038 0.306 0.269s2.059 4.431 2.059 4.431c0.116 0.216 0.153 0.4 0.119 0.547-0.038 0.15-0.134 0.222-0.291 0.222h-13.394c-0.156 0-0.253-0.075-0.291-0.222zM0.025 11.509v-2.006c0-0.134 0.050-0.253 0.15-0.353s0.216-0.15 0.35-0.15h12.975c0.134 0 0.253 0.050 0.35 0.15 0.1 0.1 0.15 0.216 0.15 0.353v2.006c0 0.137-0.050 0.253-0.15 0.353s-0.216 0.15-0.35 0.15h-12.978c-0.137 0-0.253-0.050-0.35-0.15s-0.147-0.216-0.147-0.353zM11.825 11.009h1.172v-1.003h-1.172v1.003zM1.187 11.009h1.172v-1.003h-1.172v1.003zM3.084 11.009h1.172v-1.003h-1.172v1.003zM4.975 11.009h1.172v-1.003h-1.172v1.003zM6.872 11.009h1.172v-1.003h-1.172v1.003z"></path>
</svg>
