<?xml version="1.0" encoding="utf-8"?>
<!-- Generated by IcoMoon.io -->
<!DOCTYPE svg PUBLIC "-//W3C//DTD SVG 1.1//EN" "http://www.w3.org/Graphics/SVG/1.1/DTD/svg11.dtd">
<svg version="1.1" xmlns="http://www.w3.org/2000/svg" xmlns:xlink="http://www.w3.org/1999/xlink" width="14" height="14" viewBox="0 0 14 14">
<path d="M7.001 14c-3.86 0-7.001-3.14-7.001-7 0-3.859 3.141-7 7.001-7 3.859 0 6.999 3.141 6.999 7 0 3.86-3.14 7-6.999 7zM7.001 1.7c-2.923 0-5.301 2.377-5.301 5.3 0 2.924 2.377 5.3 5.301 5.3 2.922 0 5.3-2.376 5.3-5.301-0-2.922-2.378-5.299-5.3-5.299v0zM9.991 8.677c0.001-0.067-0.025-0.126-0.077-0.178l-1.5-1.5 1.509-1.509c0.052-0.052 0.077-0.111 0.077-0.178s-0.027-0.126-0.079-0.179l-1.055-1.055c-0.053-0.052-0.112-0.079-0.179-0.079s-0.126 0.025-0.178 0.077l-1.509 1.509-1.509-1.509c-0.052-0.052-0.111-0.077-0.178-0.077s-0.126 0.027-0.179 0.079l-1.055 1.055c-0.052 0.053-0.079 0.112-0.079 0.179s0.025 0.126 0.077 0.178l1.509 1.509-1.509 1.5c-0.052 0.052-0.077 0.111-0.077 0.178s0.027 0.126 0.079 0.179l1.055 1.055c0.053 0.053 0.112 0.079 0.179 0.079s0.126-0.025 0.178-0.077l1.509-1.5 1.5 1.5c0.052 0.052 0.111 0.077 0.178 0.077s0.126-0.027 0.179-0.079l1.055-1.055c0.053-0.052 0.079-0.112 0.080-0.178v0z"></path>
</svg>
