<?xml version="1.0" encoding="utf-8"?>
<!-- Generated by IcoMoon.io -->
<!DOCTYPE svg PUBLIC "-//W3C//DTD SVG 1.1//EN" "http://www.w3.org/Graphics/SVG/1.1/DTD/svg11.dtd">
<svg version="1.1" xmlns="http://www.w3.org/2000/svg" xmlns:xlink="http://www.w3.org/1999/xlink" width="14" height="14" viewBox="0 0 14 14">
<path d="M13.402 9.189l-1.304 1.304-5.385-5.385c-0.072-0.072-0.155-0.108-0.249-0.108s-0.177 0.036-0.249 0.108l-1.108 1.108c-0.072 0.072-0.108 0.155-0.108 0.249s0.036 0.177 0.108 0.249l5.385 5.385-1.304 1.304c-0.329 0.329-0.217 0.598 0.248 0.598h3.719c0.728 0 0.845-0.127 0.845-0.845v-3.719c0-0.465-0.269-0.576-0.598-0.248zM2 2.156c0-0.045 0.015-0.083 0.044-0.112s0.067-0.044 0.112-0.044h9.689c0.045 0 0.082 0.015 0.111 0.044s0.044 0.066 0.044 0.111v4.535c0 0.090 0.029 0.164 0.088 0.222s0.133 0.088 0.222 0.088h1.38c0.090 0 0.164-0.029 0.222-0.088s0.088-0.133 0.088-0.222v-6.38c0-0.090-0.029-0.164-0.088-0.222s-0.133-0.088-0.222-0.088h-13.38c-0.090-0-0.164 0.029-0.222 0.088s-0.088 0.133-0.088 0.222v13.38c0 0.090 0.029 0.164 0.088 0.222s0.133 0.088 0.222 0.088h6.38c0.090 0 0.164-0.029 0.222-0.088s0.088-0.133 0.088-0.222v-1.38c0-0.090-0.029-0.164-0.088-0.222s-0.133-0.088-0.222-0.088h-4.534c-0.045 0-0.083-0.015-0.112-0.044s-0.044-0.067-0.044-0.112v-9.687z"></path>
</svg>
