<?xml version="1.0" encoding="utf-8"?>
<!-- Generated by IcoMoon.io -->
<!DOCTYPE svg PUBLIC "-//W3C//DTD SVG 1.1//EN" "http://www.w3.org/Graphics/SVG/1.1/DTD/svg11.dtd">
<svg version="1.1" xmlns="http://www.w3.org/2000/svg" xmlns:xlink="http://www.w3.org/1999/xlink" width="14" height="14" viewBox="0 0 14 14">
<path d="M3.002 13l1.002-1-2.004-2-0.999 1v1h0.999v1.004l1.002-0.004zM11.022 6l-8.022 8h-3v-3l8.020-8 3.002 3zM14 2.569c0 0.261-0.091 0.482-0.273 0.664l-2.004 2.057-2.99-2.987 2.031-2.022c0.177-0.187 0.398-0.28 0.664-0.28 0.261 0 0.485 0.093 0.671 0.28l1.627 1.618c0.182 0.192 0.273 0.415 0.273 0.671v0z"></path>
</svg>
